<svg id="Layer_1" data-name="Layer 1" xmlns="http://www.w3.org/2000/svg" xmlns:xlink="http://www.w3.org/1999/xlink" viewBox="0 0 1467.35 1252.46"><defs><style>.cls-1{fill:#070707;}.cls-2,.cls-3,.cls-5{stroke-miterlimit:10;}.cls-2{stroke-width:2px;fill:url(#linear-gradient);stroke:url(#linear-gradient-2);}.cls-3{fill:url(#linear-gradient-3);stroke:url(#linear-gradient-4);}.cls-4{fill:url(#linear-gradient-5);}.cls-5{fill:none;stroke-width:3px;stroke:url(#linear-gradient-6);}.cls-6{fill:url(#linear-gradient-7);}.cls-7{fill:url(#linear-gradient-8);}.cls-8{fill:url(#linear-gradient-9);}.cls-9{fill:url(#linear-gradient-10);}.cls-10{fill:url(#linear-gradient-11);}.cls-11{fill:url(#linear-gradient-12);}.cls-12{fill:url(#linear-gradient-13);}.cls-13{fill:url(#linear-gradient-14);}.cls-14{fill:url(#linear-gradient-15);}.cls-15{fill:url(#linear-gradient-16);}.cls-16{fill:url(#linear-gradient-17);}.cls-17{fill:url(#linear-gradient-18);}.cls-18{fill:url(#linear-gradient-19);}.cls-19{fill:url(#linear-gradient-20);}.cls-20{fill:url(#linear-gradient-21);}.cls-21{fill:url(#linear-gradient-22);}.cls-22{fill:url(#linear-gradient-23);}.cls-23{fill:url(#linear-gradient-24);}.cls-24{fill:url(#linear-gradient-25);}.cls-25{fill:url(#linear-gradient-26);}.cls-26{fill:url(#linear-gradient-27);}.cls-27{fill:url(#linear-gradient-28);}.cls-28{fill:url(#linear-gradient-29);}.cls-29{fill:url(#linear-gradient-30);}.cls-30{fill:url(#linear-gradient-31);}.cls-31{fill:url(#linear-gradient-32);}.cls-32{fill:url(#linear-gradient-33);}.cls-33{fill:url(#linear-gradient-34);}.cls-34{fill:url(#linear-gradient-35);}.cls-35{fill:url(#linear-gradient-36);}.cls-36{fill:url(#linear-gradient-37);}.cls-37{fill:url(#linear-gradient-38);}.cls-38{fill:url(#linear-gradient-39);}.cls-39{fill:url(#linear-gradient-40);}.cls-40{fill:url(#linear-gradient-41);}.cls-41{fill:url(#linear-gradient-42);}.cls-42{fill:url(#linear-gradient-43);}.cls-43{fill:url(#linear-gradient-44);}.cls-44{fill:url(#linear-gradient-45);}.cls-45{fill:url(#linear-gradient-46);}.cls-46{fill:url(#linear-gradient-47);}.cls-47{fill:url(#linear-gradient-48);}.cls-48{fill:url(#linear-gradient-49);}.cls-49{fill:url(#linear-gradient-50);}.cls-50{fill:url(#linear-gradient-51);}.cls-51{fill:url(#linear-gradient-52);}.cls-52{fill:url(#linear-gradient-53);}.cls-53{fill:url(#linear-gradient-54);}.cls-54{fill:url(#linear-gradient-55);}.cls-55{fill:url(#linear-gradient-56);}.cls-56{fill:url(#linear-gradient-57);}.cls-57{fill:url(#linear-gradient-58);}.cls-58{fill:url(#linear-gradient-59);}.cls-59{fill:url(#linear-gradient-60);}.cls-60{fill:url(#linear-gradient-61);}.cls-61{fill:url(#linear-gradient-62);}.cls-62{fill:url(#linear-gradient-63);}.cls-63{fill:url(#linear-gradient-64);}.cls-64{fill:url(#linear-gradient-65);}.cls-65{fill:url(#linear-gradient-66);}.cls-66{fill:url(#linear-gradient-67);}.cls-67{fill:url(#linear-gradient-68);}.cls-68{fill:url(#linear-gradient-69);}.cls-69{fill:url(#linear-gradient-70);}.cls-70{fill:url(#linear-gradient-71);}.cls-71{fill:url(#linear-gradient-72);}.cls-72{fill:url(#linear-gradient-73);}.cls-73{fill:url(#linear-gradient-74);}.cls-74{fill:url(#linear-gradient-75);}.cls-75{fill:url(#linear-gradient-76);}.cls-76{fill:url(#linear-gradient-77);}.cls-77{fill:url(#linear-gradient-78);}.cls-78{fill:url(#linear-gradient-79);}.cls-79{fill:url(#linear-gradient-80);}.cls-80{fill:url(#linear-gradient-81);}.cls-81{fill:url(#linear-gradient-82);}.cls-82{fill:url(#linear-gradient-83);}.cls-83{fill:url(#linear-gradient-84);}.cls-84{fill:url(#linear-gradient-85);}.cls-85{fill:url(#linear-gradient-86);}.cls-86{fill:url(#linear-gradient-87);}.cls-87{fill:url(#linear-gradient-88);}.cls-88{fill:url(#linear-gradient-89);}.cls-89{fill:url(#linear-gradient-90);}.cls-90{fill:url(#linear-gradient-91);}.cls-91{fill:url(#linear-gradient-92);}.cls-92{fill:url(#linear-gradient-93);}.cls-93{fill:url(#linear-gradient-94);}.cls-94{fill:url(#linear-gradient-95);}.cls-95{fill:url(#linear-gradient-96);}.cls-96{fill:url(#linear-gradient-97);}.cls-97{fill:url(#linear-gradient-98);}.cls-98{fill:url(#linear-gradient-99);}.cls-99{fill:url(#linear-gradient-100);}.cls-100{fill:url(#linear-gradient-101);}.cls-101{fill:url(#linear-gradient-102);}.cls-102{fill:url(#linear-gradient-103);}.cls-103{fill:url(#linear-gradient-104);}.cls-104{fill:url(#linear-gradient-105);}.cls-105{fill:url(#linear-gradient-106);}.cls-106{fill:url(#linear-gradient-107);}.cls-107{fill:url(#linear-gradient-108);}.cls-108{fill:url(#linear-gradient-109);}.cls-109{fill:url(#linear-gradient-110);}.cls-110{fill:url(#linear-gradient-111);}.cls-111{fill:url(#linear-gradient-112);}.cls-112{fill:url(#linear-gradient-113);}</style><linearGradient id="linear-gradient" x1="560.01" y1="588.48" x2="838.17" y2="566.6" gradientUnits="userSpaceOnUse"><stop offset="0" stop-color="#fff3a6"/><stop offset="0.08" stop-color="#f9df7b"/><stop offset="0.16" stop-color="#e1bc55"/><stop offset="0.25" stop-color="#cea137"/><stop offset="0.33" stop-color="#c08e21"/><stop offset="0.41" stop-color="#b88214"/><stop offset="0.49" stop-color="#b57e10"/><stop offset="0.56" stop-color="#b88214"/><stop offset="0.63" stop-color="#c08d21"/><stop offset="0.71" stop-color="#cda036"/><stop offset="0.78" stop-color="#dfbb53"/><stop offset="0.86" stop-color="#f7dc78"/><stop offset="0.86" stop-color="#f9df7b"/><stop offset="1" stop-color="#fff3a6"/></linearGradient><linearGradient id="linear-gradient-2" x1="577.73" y1="574.91" x2="887.4" y2="574.91" xlink:href="#linear-gradient"/><linearGradient id="linear-gradient-3" x1="649.22" y1="596.58" x2="779.01" y2="562.83" xlink:href="#linear-gradient"/><linearGradient id="linear-gradient-4" x1="655.47" y1="574.91" x2="809.66" y2="574.91" xlink:href="#linear-gradient"/><linearGradient id="linear-gradient-5" x1="576.34" y1="577.21" x2="780.83" y2="574.2" xlink:href="#linear-gradient"/><linearGradient id="linear-gradient-6" x1="652.89" y1="641.77" x2="812.24" y2="508.05" xlink:href="#linear-gradient"/><linearGradient id="linear-gradient-7" x1="632.6" y1="381.61" x2="741.34" y2="373.79" xlink:href="#linear-gradient"/><linearGradient id="linear-gradient-8" x1="633.27" y1="386.37" x2="741.68" y2="378.57" xlink:href="#linear-gradient"/><linearGradient id="linear-gradient-9" x1="632.35" y1="377.3" x2="740.97" y2="369.49" xlink:href="#linear-gradient"/><linearGradient id="linear-gradient-10" x1="760.16" y1="547.65" x2="724.2" y2="583.62" xlink:href="#linear-gradient"/><linearGradient id="linear-gradient-11" x1="749.32" y1="520.94" x2="751.88" y2="540.38" xlink:href="#linear-gradient"/><linearGradient id="linear-gradient-12" x1="671.67" y1="582.58" x2="694.59" y2="572.68" xlink:href="#linear-gradient"/><linearGradient id="linear-gradient-13" x1="701.79" y1="512.85" x2="719.12" y2="544.44" xlink:href="#linear-gradient"/><linearGradient id="linear-gradient-14" x1="711.14" y1="637.58" x2="713.17" y2="601.88" xlink:href="#linear-gradient"/><linearGradient id="linear-gradient-15" x1="784.46" y1="555.35" x2="770.7" y2="573.19" xlink:href="#linear-gradient"/><linearGradient id="linear-gradient-16" x1="767.71" y1="621.13" x2="750.27" y2="606.25" xlink:href="#linear-gradient"/><linearGradient id="linear-gradient-17" x1="1265.4" y1="655.43" x2="1272.37" y2="649.57" xlink:href="#linear-gradient"/><linearGradient id="linear-gradient-18" x1="1252.12" y1="629.6" x2="1259.1" y2="623.75" xlink:href="#linear-gradient"/><linearGradient id="linear-gradient-19" x1="1319.43" y1="660.67" x2="1326.41" y2="654.82" xlink:href="#linear-gradient"/><linearGradient id="linear-gradient-20" x1="1154.01" y1="682.79" x2="1160.98" y2="676.93" xlink:href="#linear-gradient"/><linearGradient id="linear-gradient-21" x1="1162.65" y1="652.5" x2="1169.62" y2="646.65" xlink:href="#linear-gradient"/><linearGradient id="linear-gradient-22" x1="916.43" y1="659.58" x2="921.41" y2="655.4" xlink:href="#linear-gradient"/><linearGradient id="linear-gradient-23" x1="918.29" y1="644.5" x2="923.27" y2="640.31" xlink:href="#linear-gradient"/><linearGradient id="linear-gradient-24" x1="961.17" y1="644.28" x2="966.15" y2="640.1" xlink:href="#linear-gradient"/><linearGradient id="linear-gradient-25" x1="1013.68" y1="591.42" x2="1018.66" y2="587.24" xlink:href="#linear-gradient"/><linearGradient id="linear-gradient-26" x1="1001.42" y1="657.34" x2="1006.41" y2="653.16" xlink:href="#linear-gradient"/><linearGradient id="linear-gradient-27" x1="1157.19" y1="565.06" x2="1162.17" y2="560.88" xlink:href="#linear-gradient"/><linearGradient id="linear-gradient-28" x1="987.1" y1="697.57" x2="992.08" y2="693.39" xlink:href="#linear-gradient"/><linearGradient id="linear-gradient-29" x1="1027.46" y1="679.81" x2="1032.44" y2="675.63" xlink:href="#linear-gradient"/><linearGradient id="linear-gradient-30" x1="958.33" y1="693.72" x2="963.31" y2="689.54" xlink:href="#linear-gradient"/><linearGradient id="linear-gradient-31" x1="921.89" y1="534.58" x2="928.87" y2="528.72" xlink:href="#linear-gradient"/><linearGradient id="linear-gradient-32" x1="995.2" y1="720.03" x2="1048.27" y2="675.49" xlink:href="#linear-gradient"/><linearGradient id="linear-gradient-33" x1="1124.85" y1="605.32" x2="1177.93" y2="560.78" xlink:href="#linear-gradient"/><linearGradient id="linear-gradient-34" x1="1235.13" y1="662.4" x2="1272.13" y2="631.35" xlink:href="#linear-gradient"/><linearGradient id="linear-gradient-35" x1="949.47" y1="748.02" x2="1158.34" y2="572.76" xlink:href="#linear-gradient"/><linearGradient id="linear-gradient-36" x1="1237.87" y1="678.14" x2="1318.64" y2="610.37" xlink:href="#linear-gradient"/><linearGradient id="linear-gradient-37" x1="884.61" y1="589.58" x2="946.02" y2="538.05" xlink:href="#linear-gradient"/><linearGradient id="linear-gradient-38" x1="905.33" y1="647.82" x2="925.56" y2="630.84" xlink:href="#linear-gradient"/><linearGradient id="linear-gradient-39" x1="904.14" y1="667" x2="921.88" y2="652.12" xlink:href="#linear-gradient"/><linearGradient id="linear-gradient-40" x1="943.44" y1="717.19" x2="973.94" y2="691.6" xlink:href="#linear-gradient"/><linearGradient id="linear-gradient-41" x1="967.54" y1="726.32" x2="1009.17" y2="691.4" xlink:href="#linear-gradient"/><linearGradient id="linear-gradient-42" x1="1007.85" y1="678.26" x2="1040.45" y2="650.9" xlink:href="#linear-gradient"/><linearGradient id="linear-gradient-43" x1="1145.33" y1="643.65" x2="1175.39" y2="618.43" xlink:href="#linear-gradient"/><linearGradient id="linear-gradient-44" x1="1250.61" y1="679.38" x2="1285.03" y2="650.5" xlink:href="#linear-gradient"/><linearGradient id="linear-gradient-45" x1="1019.45" y1="627.43" x2="1077.99" y2="578.31" xlink:href="#linear-gradient"/><linearGradient id="linear-gradient-46" x1="459.19" y1="654.59" x2="466.16" y2="648.73" gradientTransform="matrix(-1, 0, 0, 1, 661.14, 0)" xlink:href="#linear-gradient"/><linearGradient id="linear-gradient-47" x1="445.91" y1="628.76" x2="452.89" y2="622.91" gradientTransform="matrix(-1, 0, 0, 1, 661.14, 0)" xlink:href="#linear-gradient"/><linearGradient id="linear-gradient-48" x1="513.22" y1="659.83" x2="520.2" y2="653.98" gradientTransform="matrix(-1, 0, 0, 1, 661.14, 0)" xlink:href="#linear-gradient"/><linearGradient id="linear-gradient-49" x1="347.79" y1="681.95" x2="354.77" y2="676.09" gradientTransform="matrix(-1, 0, 0, 1, 661.14, 0)" xlink:href="#linear-gradient"/><linearGradient id="linear-gradient-50" x1="356.44" y1="651.66" x2="363.41" y2="645.81" gradientTransform="matrix(-1, 0, 0, 1, 661.14, 0)" xlink:href="#linear-gradient"/><linearGradient id="linear-gradient-51" x1="110.22" y1="658.74" x2="115.2" y2="654.56" gradientTransform="matrix(-1, 0, 0, 1, 661.14, 0)" xlink:href="#linear-gradient"/><linearGradient id="linear-gradient-52" x1="112.08" y1="643.66" x2="117.06" y2="639.48" gradientTransform="matrix(-1, 0, 0, 1, 661.14, 0)" xlink:href="#linear-gradient"/><linearGradient id="linear-gradient-53" x1="154.96" y1="643.44" x2="159.94" y2="639.26" gradientTransform="matrix(-1, 0, 0, 1, 661.14, 0)" xlink:href="#linear-gradient"/><linearGradient id="linear-gradient-54" x1="207.46" y1="590.58" x2="212.45" y2="586.4" gradientTransform="matrix(-1, 0, 0, 1, 661.14, 0)" xlink:href="#linear-gradient"/><linearGradient id="linear-gradient-55" x1="195.21" y1="656.5" x2="200.2" y2="652.32" gradientTransform="matrix(-1, 0, 0, 1, 661.14, 0)" xlink:href="#linear-gradient"/><linearGradient id="linear-gradient-56" x1="350.98" y1="564.22" x2="355.96" y2="560.04" gradientTransform="matrix(-1, 0, 0, 1, 661.14, 0)" xlink:href="#linear-gradient"/><linearGradient id="linear-gradient-57" x1="180.88" y1="696.73" x2="185.87" y2="692.55" gradientTransform="matrix(-1, 0, 0, 1, 661.14, 0)" xlink:href="#linear-gradient"/><linearGradient id="linear-gradient-58" x1="221.25" y1="678.97" x2="226.23" y2="674.79" gradientTransform="matrix(-1, 0, 0, 1, 661.14, 0)" xlink:href="#linear-gradient"/><linearGradient id="linear-gradient-59" x1="152.12" y1="692.88" x2="157.1" y2="688.7" gradientTransform="matrix(-1, 0, 0, 1, 661.14, 0)" xlink:href="#linear-gradient"/><linearGradient id="linear-gradient-60" x1="115.68" y1="533.74" x2="122.65" y2="527.88" gradientTransform="matrix(-1, 0, 0, 1, 661.14, 0)" xlink:href="#linear-gradient"/><linearGradient id="linear-gradient-61" x1="188.98" y1="719.19" x2="242.06" y2="674.65" gradientTransform="matrix(-1, 0, 0, 1, 661.14, 0)" xlink:href="#linear-gradient"/><linearGradient id="linear-gradient-62" x1="318.64" y1="604.48" x2="371.72" y2="559.94" gradientTransform="matrix(-1, 0, 0, 1, 661.14, 0)" xlink:href="#linear-gradient"/><linearGradient id="linear-gradient-63" x1="428.92" y1="661.56" x2="465.92" y2="630.51" gradientTransform="matrix(-1, 0, 0, 1, 661.14, 0)" xlink:href="#linear-gradient"/><linearGradient id="linear-gradient-64" x1="143.26" y1="747.18" x2="352.13" y2="571.92" gradientTransform="matrix(-1, 0, 0, 1, 661.14, 0)" xlink:href="#linear-gradient"/><linearGradient id="linear-gradient-65" x1="431.66" y1="677.3" x2="512.43" y2="609.53" gradientTransform="matrix(-1, 0, 0, 1, 661.14, 0)" xlink:href="#linear-gradient"/><linearGradient id="linear-gradient-66" x1="78.39" y1="588.74" x2="139.81" y2="537.21" gradientTransform="matrix(-1, 0, 0, 1, 661.14, 0)" xlink:href="#linear-gradient"/><linearGradient id="linear-gradient-67" x1="99.11" y1="646.98" x2="119.35" y2="630" gradientTransform="matrix(-1, 0, 0, 1, 661.14, 0)" xlink:href="#linear-gradient"/><linearGradient id="linear-gradient-68" x1="97.92" y1="666.17" x2="115.66" y2="651.28" gradientTransform="matrix(-1, 0, 0, 1, 661.14, 0)" xlink:href="#linear-gradient"/><linearGradient id="linear-gradient-69" x1="137.23" y1="716.35" x2="167.72" y2="690.76" gradientTransform="matrix(-1, 0, 0, 1, 661.14, 0)" xlink:href="#linear-gradient"/><linearGradient id="linear-gradient-70" x1="161.33" y1="725.49" x2="202.96" y2="690.56" gradientTransform="matrix(-1, 0, 0, 1, 661.14, 0)" xlink:href="#linear-gradient"/><linearGradient id="linear-gradient-71" x1="201.64" y1="677.42" x2="234.24" y2="650.06" gradientTransform="matrix(-1, 0, 0, 1, 661.14, 0)" xlink:href="#linear-gradient"/><linearGradient id="linear-gradient-72" x1="339.12" y1="642.81" x2="369.17" y2="617.59" gradientTransform="matrix(-1, 0, 0, 1, 661.14, 0)" xlink:href="#linear-gradient"/><linearGradient id="linear-gradient-73" x1="444.4" y1="678.54" x2="478.82" y2="649.66" gradientTransform="matrix(-1, 0, 0, 1, 661.14, 0)" xlink:href="#linear-gradient"/><linearGradient id="linear-gradient-74" x1="213.24" y1="626.59" x2="271.78" y2="577.47" gradientTransform="matrix(-1, 0, 0, 1, 661.14, 0)" xlink:href="#linear-gradient"/><linearGradient id="linear-gradient-75" x1="593.09" y1="858.53" x2="644.34" y2="858.53" gradientUnits="userSpaceOnUse"><stop offset="0" stop-color="#ffeb76"/><stop offset="0.25" stop-color="#996c22"/><stop offset="0.35" stop-color="#c3912f"/><stop offset="1" stop-color="#fffa85"/></linearGradient><linearGradient id="linear-gradient-76" x1="640.74" y1="855.87" x2="692.08" y2="855.87" xlink:href="#linear-gradient-75"/><linearGradient id="linear-gradient-77" x1="689.16" y1="858.53" x2="740.4" y2="858.53" xlink:href="#linear-gradient-75"/><linearGradient id="linear-gradient-78" x1="736.81" y1="855.87" x2="788.14" y2="855.87" xlink:href="#linear-gradient-75"/><linearGradient id="linear-gradient-79" x1="784.14" y1="858.53" x2="835.38" y2="858.53" xlink:href="#linear-gradient-75"/><linearGradient id="linear-gradient-80" x1="831.79" y1="855.87" x2="883.12" y2="855.87" xlink:href="#linear-gradient-75"/><linearGradient id="linear-gradient-81" x1="880.43" y1="858.78" x2="1089.4" y2="858.78" xlink:href="#linear-gradient-75"/><linearGradient id="linear-gradient-82" x1="388.14" y1="858.78" x2="597.11" y2="858.78" xlink:href="#linear-gradient-75"/><linearGradient id="linear-gradient-83" x1="653.77" y1="859.7" x2="662.85" y2="859.7" xlink:href="#linear-gradient-75"/><linearGradient id="linear-gradient-84" x1="701.9" y1="855.12" x2="710.98" y2="855.12" xlink:href="#linear-gradient-75"/><linearGradient id="linear-gradient-85" x1="749.69" y1="859.82" x2="758.76" y2="859.82" xlink:href="#linear-gradient-75"/><linearGradient id="linear-gradient-86" x1="796.88" y1="855" x2="805.96" y2="855" xlink:href="#linear-gradient-75"/><linearGradient id="linear-gradient-87" x1="844.78" y1="859.82" x2="853.86" y2="859.82" xlink:href="#linear-gradient-75"/><linearGradient id="linear-gradient-88" x1="605.87" y1="854.89" x2="614.95" y2="854.89" xlink:href="#linear-gradient-75"/><linearGradient id="linear-gradient-89" x1="379.79" y1="795.86" x2="463.88" y2="796.59" gradientUnits="userSpaceOnUse"><stop offset="0.21" stop-color="#ffeb76"/><stop offset="0.25" stop-color="#996c22"/><stop offset="0.34" stop-color="#c3912f"/><stop offset="0.6" stop-color="#fffa85"/></linearGradient><linearGradient id="linear-gradient-90" x1="458.35" y1="794.43" x2="508.15" y2="794.43" gradientUnits="userSpaceOnUse"><stop offset="0.2" stop-color="#ffeb76"/><stop offset="0.25" stop-color="#996c22"/><stop offset="0.51" stop-color="#c3912f"/><stop offset="0.8" stop-color="#fffa85"/></linearGradient><linearGradient id="linear-gradient-91" x1="517.55" y1="806.58" x2="559.07" y2="806.58" gradientUnits="userSpaceOnUse"><stop offset="0.16" stop-color="#ffeb76"/><stop offset="0.22" stop-color="#996c22"/><stop offset="0.6" stop-color="#c3912f"/><stop offset="0.73" stop-color="#fffa85"/></linearGradient><linearGradient id="linear-gradient-92" x1="565.03" y1="806.12" x2="599.06" y2="806.12" gradientUnits="userSpaceOnUse"><stop offset="0.26" stop-color="#ffeb76"/><stop offset="0.35" stop-color="#c3912f"/><stop offset="0.46" stop-color="#996c22"/><stop offset="0.63" stop-color="#fffa85"/></linearGradient><linearGradient id="linear-gradient-93" x1="607.16" y1="806.58" x2="648.68" y2="806.58" gradientUnits="userSpaceOnUse"><stop offset="0.04" stop-color="#ffeb76"/><stop offset="0.21" stop-color="#996c22"/><stop offset="0.46" stop-color="#c3912f"/><stop offset="0.73" stop-color="#fffa85"/></linearGradient><linearGradient id="linear-gradient-94" x1="654.98" y1="799.8" x2="682.53" y2="799.8" gradientUnits="userSpaceOnUse"><stop offset="0.21" stop-color="#ffeb76"/><stop offset="0.38" stop-color="#996c22"/><stop offset="0.6" stop-color="#c3912f"/><stop offset="0.8" stop-color="#fffa85"/></linearGradient><linearGradient id="linear-gradient-95" x1="776.88" y1="796.2" x2="849.83" y2="796.2" gradientUnits="userSpaceOnUse"><stop offset="0.12" stop-color="#ffeb76"/><stop offset="0.2" stop-color="#996c22"/><stop offset="0.41" stop-color="#c3912f"/><stop offset="0.56" stop-color="#fffa85"/></linearGradient><linearGradient id="linear-gradient-96" x1="859.08" y1="806.96" x2="890.27" y2="806.96" gradientUnits="userSpaceOnUse"><stop offset="0.09" stop-color="#ffeb76"/><stop offset="0.25" stop-color="#996c22"/><stop offset="0.62" stop-color="#c3912f"/><stop offset="0.86" stop-color="#fffa85"/></linearGradient><linearGradient id="linear-gradient-97" x1="899.62" y1="794.59" x2="949.42" y2="794.59" gradientUnits="userSpaceOnUse"><stop offset="0.15" stop-color="#ffeb76"/><stop offset="0.25" stop-color="#996c22"/><stop offset="0.61" stop-color="#c3912f"/><stop offset="0.83" stop-color="#fffa85"/></linearGradient><linearGradient id="linear-gradient-98" x1="958.17" y1="794.59" x2="981.07" y2="794.59" gradientUnits="userSpaceOnUse"><stop offset="0.31" stop-color="#ffeb76"/><stop offset="0.45" stop-color="#996c22"/><stop offset="0.64" stop-color="#c3912f"/><stop offset="0.76" stop-color="#fffa85"/></linearGradient><linearGradient id="linear-gradient-99" x1="989.68" y1="799.96" x2="1017.22" y2="799.96" gradientUnits="userSpaceOnUse"><stop offset="0.28" stop-color="#ffeb76"/><stop offset="0.42" stop-color="#996c22"/><stop offset="0.53" stop-color="#c3912f"/><stop offset="0.74" stop-color="#fffa85"/></linearGradient><linearGradient id="linear-gradient-100" x1="1025.17" y1="794.59" x2="1048.08" y2="794.59" gradientUnits="userSpaceOnUse"><stop offset="0.37" stop-color="#ffeb76"/><stop offset="0.49" stop-color="#996c22"/><stop offset="0.59" stop-color="#c3912f"/><stop offset="0.7" stop-color="#fffa85"/></linearGradient><linearGradient id="linear-gradient-101" x1="1057.73" y1="806.94" x2="1099.39" y2="806.94" gradientUnits="userSpaceOnUse"><stop offset="0.2" stop-color="#ffeb76"/><stop offset="0.35" stop-color="#996c22"/><stop offset="0.63" stop-color="#c3912f"/><stop offset="0.82" stop-color="#fffa85"/></linearGradient><linearGradient id="linear-gradient-102" x1="726.81" y1="813.55" x2="743.26" y2="813.55" gradientUnits="userSpaceOnUse"><stop offset="0" stop-color="#ffeb76"/><stop offset="0.31" stop-color="#996c22"/><stop offset="0.66" stop-color="#c3912f"/><stop offset="0.98" stop-color="#fffa85"/></linearGradient><linearGradient id="linear-gradient-103" x1="462.36" y1="916.41" x2="487.05" y2="916.41" xlink:href="#linear-gradient-89"/><linearGradient id="linear-gradient-104" x1="508.39" y1="916.42" x2="543.23" y2="916.42" xlink:href="#linear-gradient-89"/><linearGradient id="linear-gradient-105" x1="564.5" y1="916.43" x2="597.41" y2="916.43" xlink:href="#linear-gradient-89"/><linearGradient id="linear-gradient-106" x1="618.45" y1="916.42" x2="644.03" y2="916.42" xlink:href="#linear-gradient-89"/><linearGradient id="linear-gradient-107" x1="665.06" y1="916.43" x2="697.97" y2="916.43" xlink:href="#linear-gradient-89"/><linearGradient id="linear-gradient-108" x1="719.55" y1="916.42" x2="750.72" y2="916.42" xlink:href="#linear-gradient-89"/><linearGradient id="linear-gradient-109" x1="772.18" y1="916.41" x2="800.79" y2="916.41" xlink:href="#linear-gradient-89"/><linearGradient id="linear-gradient-110" x1="820.91" y1="916.27" x2="853.73" y2="916.27" xlink:href="#linear-gradient-89"/><linearGradient id="linear-gradient-111" x1="875.03" y1="916.41" x2="899.72" y2="916.41" xlink:href="#linear-gradient-89"/><linearGradient id="linear-gradient-112" x1="921.06" y1="916.42" x2="955.9" y2="916.42" xlink:href="#linear-gradient-89"/><linearGradient id="linear-gradient-113" x1="976.26" y1="916.28" x2="1004.99" y2="916.28" xlink:href="#linear-gradient-89"/></defs><rect class="cls-1" width="1467.35" height="1252.46"/><path class="cls-2" d="M732.57,424.42c-85,0-153.84,67.38-153.84,150.49S647.61,725.4,732.57,725.4,886.4,658,886.4,574.91,817.52,424.42,732.57,424.42Zm0,289.12c-78.27,0-141.72-62.07-141.72-138.63S654.3,436.27,732.57,436.27s141.71,62.07,141.71,138.64S810.83,713.54,732.57,713.54Z"/><path class="cls-3" d="M732.57,500c-42.31,0-76.6,33.54-76.6,74.91s34.29,74.93,76.6,74.93,76.59-33.54,76.59-74.93S774.87,500,732.57,500Zm0,144c-.51,0-1,0-1.53,0a70.62,70.62,0,0,1-62.29-39.55,67.75,67.75,0,0,1,5-67.59,70.85,70.85,0,0,1,58.81-30.89l1.79,0A70.7,70.7,0,0,1,795.12,543a67.79,67.79,0,0,1-2.63,68.39A70.85,70.85,0,0,1,732.57,643.94Z"/><path class="cls-4" d="M732.57,447.72c-71.81,0-130,56.94-130,127.19s58.21,127.19,130,127.19,130-56.94,130-127.19S804.37,447.72,732.57,447.72Zm112.21,74.43a3.44,3.44,0,0,1,4.51,1.67,3.32,3.32,0,0,1-1.72,4.42,3.45,3.45,0,0,1-4.51-1.68A3.31,3.31,0,0,1,844.78,522.15ZM817.6,485.58a3.45,3.45,0,0,1,4.82,0,3.27,3.27,0,0,1,0,4.72,3.47,3.47,0,0,1-4.82,0A3.27,3.27,0,0,1,817.6,485.58Zm-42.82-26.07a3.44,3.44,0,0,1,4.43-1.87,3.32,3.32,0,0,1,1.91,4.34,3.43,3.43,0,0,1-4.43,1.87A3.32,3.32,0,0,1,774.78,459.51Zm-44.53-9.74a3.34,3.34,0,1,1-3.42,3.34A3.37,3.37,0,0,1,730.25,449.77Zm-53.67,11.51a3.45,3.45,0,0,1,4.53,1.64,3.31,3.31,0,0,1-1.67,4.43,3.45,3.45,0,0,1-4.53-1.63A3.32,3.32,0,0,1,676.58,461.28ZM641.11,487a3.45,3.45,0,0,1,4.82,0,3.27,3.27,0,0,1,0,4.72,3.47,3.47,0,0,1-4.82,0A3.27,3.27,0,0,1,641.11,487Zm-26.92,38.26a3.45,3.45,0,0,1,4.5-1.71,3.31,3.31,0,0,1,1.76,4.39,3.45,3.45,0,0,1-4.5,1.72A3.32,3.32,0,0,1,614.19,525.26Zm-6.46,53.27a3.34,3.34,0,1,1,3.41-3.34A3.38,3.38,0,0,1,607.73,578.53Zm12.35,49.71a3.45,3.45,0,0,1-4.51-1.68,3.32,3.32,0,0,1,1.71-4.42,3.46,3.46,0,0,1,4.52,1.68A3.32,3.32,0,0,1,620.08,628.24Zm25.47,34.43a3.45,3.45,0,0,1-4.82,0,3.27,3.27,0,0,1,0-4.72,3.47,3.47,0,0,1,4.82,0A3.27,3.27,0,0,1,645.55,662.67Zm42.82,26.07a3.43,3.43,0,0,1-4.43,1.86,3.31,3.31,0,0,1-1.91-4.33,3.43,3.43,0,0,1,4.43-1.87A3.32,3.32,0,0,1,688.37,688.74Zm41.88,11.88a3.34,3.34,0,1,1,3.41-3.34A3.38,3.38,0,0,1,730.25,700.62Zm53.67-11.52a3.44,3.44,0,0,1-4.53-1.64,3.31,3.31,0,0,1,1.67-4.43,3.45,3.45,0,0,1,4.53,1.64A3.31,3.31,0,0,1,783.92,689.1ZM821.79,665a3.46,3.46,0,0,1-4.83,0,3.29,3.29,0,0,1,0-4.72,3.48,3.48,0,0,1,4.83,0A3.29,3.29,0,0,1,821.79,665Zm26.91-38.26a3.43,3.43,0,0,1-4.49,1.71,3.3,3.3,0,0,1-1.76-4.39,3.45,3.45,0,0,1,4.5-1.72A3.31,3.31,0,0,1,848.7,626.73ZM732.57,692.08c-66.15,0-119.78-52.46-119.78-117.17s53.63-117.17,119.78-117.17S852.34,510.2,852.34,574.91,798.72,692.08,732.57,692.08ZM857.13,578.53a3.34,3.34,0,1,1,3.41-3.34A3.37,3.37,0,0,1,857.13,578.53Z"/><path class="cls-5" d="M732.57,473.72c-57.13,0-103.44,45.31-103.44,101.19s46.31,101.18,103.44,101.18S836,630.79,836,574.91,789.69,473.72,732.57,473.72Zm0,194.4h-.48v6h-3.87V668c-49.27-2.16-88.79-40.92-90.85-89.16h-6.49v-3.79h6.4v-.16c0-50.06,40.33-90.89,90.94-93.11v-2h3.87v1.86h.48c52.62,0,95.28,41.74,95.28,93.22v.16h1.58v3.79h-1.67C825.64,628.51,783.84,668.12,732.57,668.12Z"/><path d="M690.61,395.79a22.93,22.93,0,0,1-2.69,1.55"/><path class="cls-6" d="M700.44,378.84a11.63,11.63,0,0,1,4.85,5.09,10.67,10.67,0,0,1,.37,9.23c-.41.44-.59.8-.47,1,.38.81,3.8.05,7.63-1.69s6.62-3.81,6.24-4.61c-.09-.19-.34-.29-.71-.32h0a12.35,12.35,0,0,1-7.43-6.36,11.09,11.09,0,0,1-.93-7.75,7,7,0,0,0-2.8-7.43L697,358.77h0l-.42,13.57A7.13,7.13,0,0,0,700.44,378.84Z"/><path class="cls-7" d="M751.54,387.59h0c-.37,0-.62.13-.71.32-.38.8,2.41,2.87,6.25,4.61s7.24,2.5,7.63,1.69c.12-.25-.07-.61-.47-1a10.64,10.64,0,0,1,.37-9.23,11.63,11.63,0,0,1,4.85-5.09,7.1,7.1,0,0,0,3.82-6.5l-.41-13.57h0l-10.17,7.28a7,7,0,0,0-2.81,7.43,11.08,11.08,0,0,1-.92,7.75A12.4,12.4,0,0,1,751.54,387.59Z"/><path class="cls-8" d="M782.82,367.58a21.83,21.83,0,0,1,2.32,9.76,22.62,22.62,0,0,1-22.86,22.37A23.09,23.09,0,0,1,752,397.34c-6-4-10.61-11.9-10.61-19.56a22.45,22.45,0,0,1,17.05-21.61L735,320.34v0h0v0l-23.51,35.83a22.46,22.46,0,0,1,17,21.61c0,7.66-4.62,15.53-10.61,19.56a23.12,23.12,0,0,1-10.25,2.37,22.62,22.62,0,0,1-22.87-22.37,21.83,21.83,0,0,1,2.32-9.76l-31.33-4.51,35.54,53.31a157.84,157.84,0,0,1,87.33,0l35.54-53.31Z"/><polygon class="cls-9" points="747.07 551.6 720.71 551.6 707.52 573.93 720.7 596.26 747.07 596.26 760.25 573.93 747.07 551.6"/><path class="cls-10" d="M739.94,519.83l-16,26.41h57.44A57.29,57.29,0,0,0,739.94,519.83Z"/><path class="cls-11" d="M702,575.23h0l-.77-1.3,0,0-16.53-29.07a54.59,54.59,0,0,0-5,51.43h34.68Z"/><path class="cls-12" d="M688.24,540.05l16.17,28.45,13.13-22.26h0l16.28-26.86-1.27,0A57.49,57.49,0,0,0,688.24,540.05Z"/><path class="cls-13" d="M728.31,630.89l15.8-29.27H682.27A57.3,57.3,0,0,0,728.31,630.89Z"/><path class="cls-14" d="M784.29,551.6h-30.9l12.38,21,17.36,28.53a54.59,54.59,0,0,0,1.16-49.5Z"/><path class="cls-15" d="M763.44,579.22l-12.39,21L734.43,631a57.38,57.38,0,0,0,45.51-24.67Z"/><path class="cls-16" d="M1273.48,652.5a4.6,4.6,0,1,1-4.59-4.49A4.54,4.54,0,0,1,1273.48,652.5Z"/><path class="cls-17" d="M1260.21,626.68a4.6,4.6,0,1,1-4.6-4.5A4.55,4.55,0,0,1,1260.21,626.68Z"/><ellipse class="cls-18" cx="1322.92" cy="657.74" rx="4.59" ry="4.49"/><path class="cls-19" d="M1162.09,679.86a4.6,4.6,0,1,1-4.6-4.5A4.55,4.55,0,0,1,1162.09,679.86Z"/><path class="cls-20" d="M1170.73,649.57a4.6,4.6,0,1,1-4.59-4.49A4.55,4.55,0,0,1,1170.73,649.57Z"/><path class="cls-21" d="M922.2,657.49a3.28,3.28,0,1,1-3.28-3.21A3.24,3.24,0,0,1,922.2,657.49Z"/><path class="cls-22" d="M924.06,642.41a3.28,3.28,0,1,1-3.28-3.21A3.24,3.24,0,0,1,924.06,642.41Z"/><path class="cls-23" d="M966.94,642.19a3.28,3.28,0,1,1-3.28-3.21A3.25,3.25,0,0,1,966.94,642.19Z"/><path class="cls-24" d="M1019.45,589.33a3.28,3.28,0,1,1-3.28-3.21A3.25,3.25,0,0,1,1019.45,589.33Z"/><path class="cls-25" d="M1007.2,655.25a3.29,3.29,0,1,1-3.28-3.21A3.25,3.25,0,0,1,1007.2,655.25Z"/><path class="cls-26" d="M1163,563a3.28,3.28,0,1,1-3.28-3.21A3.25,3.25,0,0,1,1163,563Z"/><path class="cls-27" d="M992.87,695.48a3.28,3.28,0,1,1-3.28-3.21A3.25,3.25,0,0,1,992.87,695.48Z"/><path class="cls-28" d="M1033.23,677.72a3.28,3.28,0,1,1-3.28-3.21A3.25,3.25,0,0,1,1033.23,677.72Z"/><path class="cls-29" d="M964.1,691.63a3.28,3.28,0,1,1-3.28-3.21A3.25,3.25,0,0,1,964.1,691.63Z"/><path class="cls-30" d="M930,531.65a4.6,4.6,0,1,1-4.59-4.49A4.54,4.54,0,0,1,930,531.65Z"/><path class="cls-31" d="M1001.21,727.2a96.06,96.06,0,0,0,12.36-6,77.61,77.61,0,0,0,11-7.6,50.31,50.31,0,0,0,15.06-20.42,29.39,29.39,0,0,0,2.25-11.84c-.15-3.85-1.68-7.51-4.52-9.62a8.13,8.13,0,0,0-4.91-1.58,7.86,7.86,0,0,0-5,2,4.24,4.24,0,0,0-1.41,4.77,3.86,3.86,0,0,0,1.89,2.14,4.69,4.69,0,0,0,3.21.35,4.91,4.91,0,0,1-3.56.6,5.37,5.37,0,0,1-3.21-2.21,6,6,0,0,1-1-3.94,7.29,7.29,0,0,1,1.56-3.86c.22-.27.43-.56.66-.8l.75-.7a6.06,6.06,0,0,1,.79-.65c.29-.19.55-.41.86-.58a11.29,11.29,0,0,1,4-1.48,12.69,12.69,0,0,1,8.34,1.52,15.41,15.41,0,0,1,5.76,5.94,19.84,19.84,0,0,1,2.32,7.58,28.05,28.05,0,0,1-.31,7.62,40.59,40.59,0,0,1-2,7.12,50.51,50.51,0,0,1-3.19,6.58,47.69,47.69,0,0,1-4.21,6,50.82,50.82,0,0,1-10.8,9.66,59.5,59.5,0,0,1-12.79,6.39,58.7,58.7,0,0,1-6.81,2A43.5,43.5,0,0,1,1001.21,727.2Z"/><path class="cls-32" d="M1130.87,612.48a96,96,0,0,0,12.36-6,77.61,77.61,0,0,0,11-7.6,50.37,50.37,0,0,0,15.06-20.42,29.28,29.28,0,0,0,2.24-11.85c-.14-3.85-1.67-7.5-4.51-9.62a8.13,8.13,0,0,0-4.91-1.58,8,8,0,0,0-5,2,4.27,4.27,0,0,0-1.4,4.78,3.92,3.92,0,0,0,1.88,2.14,4.73,4.73,0,0,0,3.22.35,5,5,0,0,1-3.56.6,5.42,5.42,0,0,1-3.21-2.21,6,6,0,0,1-1-3.94,7.29,7.29,0,0,1,1.56-3.86c.21-.27.43-.56.66-.81l.75-.69a6.06,6.06,0,0,1,.79-.65,7.19,7.19,0,0,1,.86-.58,11,11,0,0,1,4-1.48,12.6,12.6,0,0,1,8.33,1.52,15.27,15.27,0,0,1,5.76,5.94,19.58,19.58,0,0,1,2.33,7.58,28.36,28.36,0,0,1-.31,7.61,40.46,40.46,0,0,1-2,7.13,51,51,0,0,1-3.19,6.57,46.27,46.27,0,0,1-4.21,6,50.28,50.28,0,0,1-10.8,9.66,59,59,0,0,1-12.79,6.39,56.84,56.84,0,0,1-6.81,2A42.38,42.38,0,0,1,1130.87,612.48Z"/><path class="cls-33" d="M1256.82,684.25a42.42,42.42,0,0,1-5.67-4.11,56.92,56.92,0,0,1-5.1-4.85,57.63,57.63,0,0,1-8.29-11.47,48.84,48.84,0,0,1-5-13.46,45.68,45.68,0,0,1-.89-7.21,49.07,49.07,0,0,1,.29-7.27,41.68,41.68,0,0,1,1.6-7.22,28.24,28.24,0,0,1,3.35-6.88,20,20,0,0,1,5.65-5.66,15.76,15.76,0,0,1,7.92-2.65,12.62,12.62,0,0,1,8.11,2.44,10.85,10.85,0,0,1,2.79,3.11,7.84,7.84,0,0,1,.49.9,6.31,6.31,0,0,1,.39.93l.33,1c.09.33.14.68.2,1a7.24,7.24,0,0,1-.44,4.13,6.13,6.13,0,0,1-2.79,3,5.47,5.47,0,0,1-3.89.5,4.89,4.89,0,0,1-2.87-2.15,4.63,4.63,0,0,0,3,1.15,3.91,3.91,0,0,0,2.68-1,4.23,4.23,0,0,0,1-4.86,7.7,7.7,0,0,0-3.48-4,8.15,8.15,0,0,0-5.09-.82c-3.52.58-6.61,3.12-8.57,6.47a29.31,29.31,0,0,0-3.63,11.5,49.35,49.35,0,0,0,3.64,24.93,75.08,75.08,0,0,0,6.11,11.71A91.8,91.8,0,0,0,1256.82,684.25Z"/><path class="cls-34" d="M963.27,644.22a4.76,4.76,0,0,0,3.44.52,4.56,4.56,0,0,0,2.8-1.93,6.41,6.41,0,0,0,.29-6.53,7.81,7.81,0,0,0-5.48-3.73,10,10,0,0,0-9.34,3,11.5,11.5,0,0,0-1.84,2.8,14.37,14.37,0,0,0-1.34,6.53,14.12,14.12,0,0,0,1.85,6.37,13.84,13.84,0,0,0,4.58,4.8,22,22,0,0,0,6.26,2.69,22.91,22.91,0,0,0,6.8.6,21.08,21.08,0,0,0,6.61-1.52,20.54,20.54,0,0,0,5.77-3.44,22.44,22.44,0,0,0,4.35-5c.54-1,1.11-2,1.61-3s.92-2.06,1.27-3.13a30.75,30.75,0,0,0-2.75-25.77,31.18,31.18,0,0,0-9.2-9.59l-1.4-.93c-.49-.28-1-.54-1.51-.81-1-.53-2-1.09-3-1.59a52.85,52.85,0,0,0-6.44-2.37,42.37,42.37,0,0,0-13.53-2,52.24,52.24,0,0,0-6.84.43,54,54,0,0,0-6.67,1.49l-1.64.47a15.35,15.35,0,0,0-1.6.59c-1,.42-2.13.8-3.17,1.26l-3,1.53-.76.38-.72.45-1.43.91-1.44.9c-.47.31-.9.68-1.35,1-.88.7-1.8,1.36-2.65,2.09L919.28,614l-.61.58-.56.64L917,616.51a50.14,50.14,0,0,0-4,5.37c-.59,1-1.16,2-1.74,2.93s-1.06,2-1.6,3A67.61,67.61,0,0,0,920.2,703.5a68.79,68.79,0,0,0,10.1,9.11c.93.65,1.85,1.34,2.78,1.95s1.86,1.22,2.83,1.78l3,1.52c1,.48,2.1.94,3.14,1.41a97.82,97.82,0,0,0,13.07,4.49,103.13,103.13,0,0,0,13.62,2.46,93.69,93.69,0,0,0,27.61-1.3,99.34,99.34,0,0,0,26.11-9,84.65,84.65,0,0,0,11.62-7.25,82.3,82.3,0,0,0,10.21-9.09,133.24,133.24,0,0,0,16.58-22.06c4.94-7.91,9.59-16.15,14.86-24.16,2.63-4,5.41-7.94,8.42-11.75a116.41,116.41,0,0,1,9.78-10.84c1.71-1.74,3.64-3.3,5.48-4.93.91-.84,1.93-1.54,2.91-2.29l3-2.22,3.11-2c1-.67,2-1.38,3.15-1.95,2.17-1.18,4.29-2.46,6.56-3.45l3.37-1.57,3.47-1.35c2.28-1,4.69-1.61,7.06-2.35,1.17-.4,2.4-.63,3.61-.92l3.64-.83,3.69-.56a33.26,33.26,0,0,1,3.71-.46,73.48,73.48,0,0,1,29.64,3.12,71.53,71.53,0,0,1,13.61,6.23,58.87,58.87,0,0,1,11.69,9.31,57.22,57.22,0,0,1,16.14,40.14,50.21,50.21,0,0,1-2.18,14.56,55.1,55.1,0,0,1-15.63,24.64,51.06,51.06,0,0,1-26.44,12.93,40.6,40.6,0,0,1-7.49.52l-1.9-.06c-.63,0-1.26-.15-1.89-.21l-1.88-.26-1.85-.43a32.84,32.84,0,0,1-13.41-6.64,33.61,33.61,0,0,1-9-11.65,32,32,0,0,1-2.86-14.31,21.14,21.14,0,0,1,5.75-13.43,21.9,21.9,0,0,1,13.06-6.74,16.51,16.51,0,0,1,7.48.49,15.24,15.24,0,0,1,3.42,1.6,14.77,14.77,0,0,1,2.85,2.43,13.9,13.9,0,0,1,3.35,6.5,12.61,12.61,0,0,1,.24,1.82,10.39,10.39,0,0,1,0,1.85,9,9,0,0,1-1.13,3.54,9.42,9.42,0,0,1-5.77,4.44,8.48,8.48,0,0,1-3.72.19,6.25,6.25,0,0,1-3.23-1.79,5.82,5.82,0,0,1-1.57-3.24,4,4,0,0,1,.95-3.41,3.94,3.94,0,0,1,3.3-1.27,2.53,2.53,0,0,1,2.21,2.45,2.49,2.49,0,0,0-2.23-2.33,3.76,3.76,0,0,0-3.09,1.32,3.69,3.69,0,0,0-.76,3.18,5.47,5.47,0,0,0,1.57,2.95,5.55,5.55,0,0,0,3,1.52,7.77,7.77,0,0,0,3.38-.29,8.51,8.51,0,0,0,5.08-4.19,8.24,8.24,0,0,0,.9-3.16,9.24,9.24,0,0,0,0-1.66,10.44,10.44,0,0,0-.27-1.66,12.65,12.65,0,0,0-3.19-5.82,12.73,12.73,0,0,0-5.7-3.46,14.82,14.82,0,0,0-6.73-.25,19.87,19.87,0,0,0-11.69,6.42,18.78,18.78,0,0,0-4.81,12.1,29.14,29.14,0,0,0,3,13,30.64,30.64,0,0,0,8.47,10.35,29.8,29.8,0,0,0,12.13,5.7l1.66.36,1.68.19c.56,0,1.11.16,1.68.15l1.69,0a37.17,37.17,0,0,0,6.81-.61,46.73,46.73,0,0,0,24-12.32,51.16,51.16,0,0,0,14-22.81,45.39,45.39,0,0,0,1.79-13.19,52.13,52.13,0,0,0-15.15-36.28,54.15,54.15,0,0,0-10.62-8.3,66,66,0,0,0-12.42-5.56,67.14,67.14,0,0,0-27.12-2.62,32.46,32.46,0,0,0-3.41.45l-3.4.55-3.36.79c-1.11.28-2.24.5-3.33.88-2.19.71-4.41,1.32-6.52,2.24l-3.2,1.26-3.11,1.49c-2.1.93-4.06,2.14-6.06,3.25-1,.53-2,1.2-2.92,1.82l-2.87,1.88-2.74,2.07c-.9.7-1.85,1.35-2.68,2.13-1.71,1.52-3.48,3-5.08,4.6a109.18,109.18,0,0,0-9.2,10.25c-2.85,3.62-5.51,7.41-8.05,11.3-5.09,7.78-9.68,16-14.71,24.07a139.24,139.24,0,0,1-17.37,23.2,90.44,90.44,0,0,1-11.06,9.79,92,92,0,0,1-12.61,7.82,106.15,106.15,0,0,1-28,9.55,100.29,100.29,0,0,1-29.6,1.31A109.47,109.47,0,0,1,953.44,730a98.41,98.41,0,0,1-14-4.91c-1.13-.52-2.25-1-3.38-1.56l-3.36-1.73c-1.09-.64-2.13-1.36-3.2-2s-2-1.45-3-2.17a75.76,75.76,0,0,1-10.92-10,73.83,73.83,0,0,1-14.81-25.25,72.15,72.15,0,0,1,4.17-56.77c.58-1.07,1.14-2.15,1.75-3.21s1.26-2.09,1.92-3.12a56.47,56.47,0,0,1,4.55-5.9l1.24-1.4c.21-.23.41-.47.63-.69l.68-.63,2.75-2.54c1-.8,2-1.52,3-2.28.51-.37,1-.77,1.51-1.11l1.6-1,1.6-1,.81-.49.84-.41,3.37-1.65c1.15-.49,2.34-.89,3.51-1.34a18.55,18.55,0,0,1,1.77-.62l1.82-.5a48.15,48.15,0,0,1,14.85-1.84,56.88,56.88,0,0,1,7.48.62,56.19,56.19,0,0,1,7.26,1.8,55.26,55.26,0,0,1,7,2.71c1.11.55,2.18,1.19,3.26,1.78.54.3,1.09.59,1.62.91l1.56,1.07a35.05,35.05,0,0,1,10.1,10.94,33.62,33.62,0,0,1,2.38,28.52c-.42,1.15-1,2.24-1.48,3.37s-1.22,2.12-1.83,3.19a25.52,25.52,0,0,1-5,5.53,24.24,24.24,0,0,1-13.91,5.16,24.53,24.53,0,0,1-7.44-.85,24,24,0,0,1-6.76-3.11A15.31,15.31,0,0,1,952,637.78a12.75,12.75,0,0,1,2.11-3,10.75,10.75,0,0,1,3-2.17,10.9,10.9,0,0,1,7.3-.76,11.14,11.14,0,0,1,3.38,1.49,7.06,7.06,0,0,1,2.39,2.76,6.81,6.81,0,0,1-.53,6.88,4.81,4.81,0,0,1-6.46,1.28Z"/><path class="cls-35" d="M1186,616.27a54.85,54.85,0,0,1,9.44,4.89,67.46,67.46,0,0,1,8.4,6.56c2.64,2.38,5.1,4.92,7.51,7.5s4.75,5.2,7.06,7.84c4.59,5.29,9.23,10.49,14.05,15.52s9.72,10,14.87,14.62c10.3,9.26,21.37,17.82,33.75,23.51a79.37,79.37,0,0,0,9.49,3.56c1.59.54,3.24.84,4.86,1.26.82.16,1.65.29,2.47.43l1.23.21,1.24.13,2.48.24,2.48.07a22.76,22.76,0,0,0,2.48,0c.82-.06,1.65-.05,2.47-.15a51.2,51.2,0,0,0,9.69-2c.8-.19,1.56-.54,2.34-.8s1.57-.53,2.32-.89c1.51-.7,3.06-1.3,4.5-2.14l2.21-1.19,2.15-1.36c1.49-.89,2.78-1.83,4.11-2.75a33.38,33.38,0,0,0,6.53-6.85,32.9,32.9,0,0,0,4.08-8.49,29.2,29.2,0,0,0,1.35-9.33,33.89,33.89,0,0,0-.39-4.72l-.51-2.32a7.2,7.2,0,0,0-.31-1.15l-.37-1.13-.37-1.14c-.15-.36-.32-.72-.48-1.09-.34-.72-.6-1.47-1-2.17l-1.19-2.08c-.39-.7-.88-1.26-1.3-1.91a20,20,0,0,0-7.16-5.73,20.66,20.66,0,0,0-18.27.31,12.71,12.71,0,0,0-3.73,2.62,12.46,12.46,0,0,0-3,12.63,11.82,11.82,0,0,0,2.15,4,8.21,8.21,0,0,0,3.76,2.4,8.71,8.71,0,0,0,4.59.15,9.22,9.22,0,0,0,2.18-.85,5.23,5.23,0,0,0,1.72-1.41,5.34,5.34,0,0,0,1.07-4.26,5.63,5.63,0,0,0-.88-2.13,3.64,3.64,0,0,0-1.83-1.3,3.94,3.94,0,0,0-2.33,0,2.64,2.64,0,0,0-1.74,1.48,2.46,2.46,0,0,0,.23,2.3,1.77,1.77,0,0,0,2.28.48,1.91,1.91,0,0,1-2.5-.31,2.86,2.86,0,0,1-.52-2.65,3,3,0,0,1,.75-1.22,4.19,4.19,0,0,1,1.22-.79,4.67,4.67,0,0,1,2.89-.26,4.83,4.83,0,0,1,2.54,1.51,6.88,6.88,0,0,1,.37,8.22,7.45,7.45,0,0,1-2.16,2.1,11,11,0,0,1-2.66,1.25,11.26,11.26,0,0,1-11.17-2.7,11.55,11.55,0,0,1-1.83-2.35l-.38-.61-.32-.65a9.8,9.8,0,0,1-.59-1.33,15.76,15.76,0,0,1,0-11.43,16.33,16.33,0,0,1,3.08-5,17.06,17.06,0,0,1,4.66-3.68,25,25,0,0,1,5.35-2.32c1-.22,1.9-.49,2.87-.64a23.92,23.92,0,0,1,2.92-.32,25.63,25.63,0,0,1,21,9.06c.58.78,1.23,1.56,1.72,2.37l1.46,2.42c.49.82.84,1.7,1.25,2.55.2.43.41.85.6,1.28l.47,1.34.47,1.34a9.13,9.13,0,0,1,.41,1.35l.66,2.76a39.25,39.25,0,0,1,.61,5.63,35.32,35.32,0,0,1-1.36,11.23,36.8,36.8,0,0,1-4.82,10.32,39.79,39.79,0,0,1-7.86,8.38c-1.54,1.1-3.1,2.23-4.63,3.17l-2.31,1.47-2.44,1.35c-1.61.94-3.35,1.65-5,2.44-.84.41-1.75.68-2.62,1s-1.75.7-2.67.92a51.94,51.94,0,0,1-5.5,1.36,50.9,50.9,0,0,1-5.63.82c-.94.11-1.89.1-2.83.15a26.94,26.94,0,0,1-2.84,0l-2.84-.1-2.81-.3-1.4-.16-1.39-.24c-.92-.17-1.85-.32-2.76-.51-1.81-.47-3.65-.83-5.41-1.44a74,74,0,0,1-10.32-4A115.19,115.19,0,0,1,1259.78,691a160.89,160.89,0,0,1-16.18-14,300.34,300.34,0,0,1-27.84-31.84c-4.25-5.53-8.56-11-13.3-16.09A61.75,61.75,0,0,0,1186,616.27Z"/><path class="cls-36" d="M923.73,530.22a2.1,2.1,0,0,0-.91,2.13,3.06,3.06,0,0,0,1.42,1.77,3.58,3.58,0,0,0,4.14-.18,6.76,6.76,0,0,0,2.58-3.55,6.14,6.14,0,0,0-.21-4.13,7.69,7.69,0,0,0-.47-.9c-.18-.3-.44-.63-.64-.93a10.47,10.47,0,0,0-.73-.89,7.55,7.55,0,0,0-.8-.8,12.91,12.91,0,0,0-12.41-2.88,14.39,14.39,0,0,0-4,2l-1,.65-.94.73-.94.72c-.31.24-.58.53-.86.79a21.84,21.84,0,0,0-5.35,7.29c-2.34,5.49-1.87,11.81.43,17.7a48.1,48.1,0,0,0,4.45,8.6,46.36,46.36,0,0,0,2.81,4.09l1.52,2,.75,1,.82,1c2.18,2.72,4.4,5.43,6.51,8.26,1.06,1.42,2.12,2.85,3.12,4.35a46.21,46.21,0,0,1,2.81,4.74,24.73,24.73,0,0,1,3.1,10.89,16.59,16.59,0,0,1-.94,5.77,19.18,19.18,0,0,1-2.68,5c-4.48,6-10.58,9.48-14.65,15.2a37.42,37.42,0,0,1,5.78-8.77,57.72,57.72,0,0,0,6-8.18,14,14,0,0,0,2-8.79,21.49,21.49,0,0,0-3.31-8.64,72.36,72.36,0,0,0-6-8q-3.31-3.93-6.76-7.85l-.86-1-.85-1.06L905,566.29a50.71,50.71,0,0,1-3.19-4.42,53.07,53.07,0,0,1-5.16-9.79,34,34,0,0,1-2.28-11.16,25.8,25.8,0,0,1,2.36-11.46,26.75,26.75,0,0,1,7.26-9.11c.38-.31.73-.64,1.12-.92l1.19-.82,1.19-.81c.4-.25.83-.47,1.25-.7a19.63,19.63,0,0,1,5.6-2.27,17.1,17.1,0,0,1,12,1.58,16.84,16.84,0,0,1,4.65,3.71,10.18,10.18,0,0,1,.92,1.16,11.22,11.22,0,0,1,.81,1.22c.23.44.48.82.7,1.3l.31.72.23.75a9,9,0,0,1-.51,6,8.61,8.61,0,0,1-4.07,4.22,5.12,5.12,0,0,1-3,.59,4.84,4.84,0,0,1-2.72-1.2,5.09,5.09,0,0,1-.9-1.13,2.78,2.78,0,0,1-.41-1.38A2.32,2.32,0,0,1,923.73,530.22Z"/><path class="cls-37" d="M901.3,643c-.47-4.18,1.74-8.7,5.47-11.53a16.75,16.75,0,0,1,13.73-3,11.8,11.8,0,0,1,3.84,1.57,11.05,11.05,0,0,1,3,2.88,10.14,10.14,0,0,1,1.7,7.65,6,6,0,0,1-.22,1c-.11.32-.17.58-.33,1a6.29,6.29,0,0,1-5,3.86,5.73,5.73,0,0,1-2-.12,6.65,6.65,0,0,1-.92-.32,3.59,3.59,0,0,1-.92-.58,2.57,2.57,0,0,1-.58-3.34,1.93,1.93,0,0,0,1.57,1.75,2.4,2.4,0,0,0,.47,0,3.47,3.47,0,0,0,.56-.11,3,3,0,0,0,.95-.42,2.37,2.37,0,0,0,1.15-2.07l0-.47a2.8,2.8,0,0,0,0-.51,6,6,0,0,0-1.53-3.43,5.45,5.45,0,0,0-1.41-1.09,5.51,5.51,0,0,0-1.71-.63,15.5,15.5,0,0,0-9.41.88A18.85,18.85,0,0,0,901.3,643Z"/><path class="cls-38" d="M899.87,653.33a18.63,18.63,0,0,0,6.78,8.48,15.37,15.37,0,0,0,9.07,2.6,5.79,5.79,0,0,0,3.4-1.11,6.06,6.06,0,0,0,2.17-3.07,4.6,4.6,0,0,0,.13-.5l.1-.46a2.15,2.15,0,0,0,0-.72,2.61,2.61,0,0,0-.77-1.53,3,3,0,0,0-.85-.59,5.32,5.32,0,0,0-.53-.21,2.11,2.11,0,0,0-.45-.1,2,2,0,0,0-1.89,1.42,2.6,2.6,0,0,1,1.22-3.17,3.44,3.44,0,0,1,1-.4,7.81,7.81,0,0,1,1-.14,5.87,5.87,0,0,1,2,.25,6.16,6.16,0,0,1,3.35,2.62,6,6,0,0,1,.82,2.11c.08.4.09.67.14,1a6.42,6.42,0,0,1,0,1,10.29,10.29,0,0,1-3.14,7.2,11.36,11.36,0,0,1-3.49,2.27,12,12,0,0,1-4.07.84A16.66,16.66,0,0,1,903,665.66C899.9,662.19,898.6,657.34,899.87,653.33Z"/><path class="cls-39" d="M970.09,729.57a32.47,32.47,0,0,1-24.29-9.74,34.24,34.24,0,0,1-7.45-11.49,34.61,34.61,0,0,1-1.85-6.64,21.4,21.4,0,0,1,0-7.36,20.63,20.63,0,0,1,7.66-12.48,21,21,0,0,1,6.61-3.46,24.06,24.06,0,0,1,3.64-.77,15.12,15.12,0,0,1,2-.14,15.31,15.31,0,0,1,2,.18,12.08,12.08,0,0,1,6.92,3.74,11.15,11.15,0,0,1,3,6.85,6.57,6.57,0,0,1-.94,3.87,6.29,6.29,0,0,1-2.93,2.48,6.07,6.07,0,0,1-1.81.44,3.62,3.62,0,0,1-1.89-.26,3,3,0,0,1-1.82-2.75,2.6,2.6,0,0,0,2.12,1.79,2.42,2.42,0,0,0,1.29-.19,4.16,4.16,0,0,0,1.19-.65,3.92,3.92,0,0,0,1.46-4.26,7.92,7.92,0,0,0-7.22-5.84,9.14,9.14,0,0,0-1.17,0,9.89,9.89,0,0,0-1.21.24c-.43.13-.89.19-1.31.35l-1.27.44a16.21,16.21,0,0,0-4.49,2.79,15.67,15.67,0,0,0-3.31,4,13.86,13.86,0,0,0-1.78,4.8,15.32,15.32,0,0,0-.07,5.15,32.15,32.15,0,0,0,1.29,5.55,33.87,33.87,0,0,0,5.4,10.16A38.55,38.55,0,0,0,970.09,729.57Z"/><path class="cls-40" d="M970.25,729.55a39,39,0,0,0,23.1-7.41,34.62,34.62,0,0,0,8-8.38,32.09,32.09,0,0,0,2.75-5,15.21,15.21,0,0,0,1.35-5,14,14,0,0,0-.42-5.1,15.3,15.3,0,0,0-2.09-4.71,16,16,0,0,0-3.57-3.86l-1.1-.76c-.37-.27-.79-.44-1.17-.67a9.64,9.64,0,0,0-1.11-.56,8.35,8.35,0,0,0-1.11-.33,8,8,0,0,0-8.55,3.74,3.92,3.92,0,0,0,.24,4.5,4.52,4.52,0,0,0,1,.93,2.49,2.49,0,0,0,1.19.52,2.65,2.65,0,0,0,2.54-1.17,3,3,0,0,1-2.51,2.18,3.68,3.68,0,0,1-1.89-.25,6,6,0,0,1-1.63-.89,6.2,6.2,0,0,1-2.14-3.16,6.54,6.54,0,0,1,.15-4,11.35,11.35,0,0,1,4.71-5.82,12.19,12.19,0,0,1,7.69-1.8,13.76,13.76,0,0,1,2,.35,14.49,14.49,0,0,1,1.87.66,23.33,23.33,0,0,1,3.3,1.69,20.55,20.55,0,0,1,9.41,19.08,21.39,21.39,0,0,1-2,7.1,35,35,0,0,1-3.6,5.92,34.65,34.65,0,0,1-10.31,9.13A32.73,32.73,0,0,1,970.25,729.55Z"/><path class="cls-41" d="M1040.35,699.33a43.08,43.08,0,0,0,3.38-17.75,48,48,0,0,0-3.52-17.29,49.2,49.2,0,0,0-9.26-14.73,42.19,42.19,0,0,0-3.1-3,14.55,14.55,0,0,0-1.66-1.37l-1.72-1.32a23.35,23.35,0,0,0-7.31-3.47,18.07,18.07,0,0,0-15.1,2.77,16.67,16.67,0,0,0-5.15,5.84l-.41.87-.21.44-.14.4a7.09,7.09,0,0,0-.37,1.64,7.26,7.26,0,0,0,.37,3.38,8.09,8.09,0,0,0,1.86,3,8.8,8.8,0,0,0,3,2,5.29,5.29,0,0,0,3.32.17,5.61,5.61,0,0,0,2.88-1.94,3.77,3.77,0,0,0-1.15-6,2.77,2.77,0,0,0-3.42.61,2.26,2.26,0,0,0-.65,1.84,2.3,2.3,0,0,0,1.29,1.7,2.49,2.49,0,0,1-1.8-1.57,2.94,2.94,0,0,1,.31-2.54,4,4,0,0,1,2.1-1.73,4.41,4.41,0,0,1,2.87,0,6.12,6.12,0,0,1,4,3.84A6.3,6.3,0,0,1,1011,658a8.32,8.32,0,0,1-1,2.71,9,9,0,0,1-4.36,3.78,9.66,9.66,0,0,1-6,.43,12.93,12.93,0,0,1-8.54-7.22,12.5,12.5,0,0,1-1.14-5.67,10.29,10.29,0,0,1,.13-1.47,11.52,11.52,0,0,1,.31-1.44c.07-.24.13-.48.2-.71l.25-.63.51-1.26a21.74,21.74,0,0,1,6.67-8.38,24,24,0,0,1,20.76-4.19,29.46,29.46,0,0,1,9.58,4.62l2,1.59a20.16,20.16,0,0,1,1.9,1.66,37.15,37.15,0,0,1,3.47,3.63,48,48,0,0,1,9.42,17.2c.5,1.54.81,3.15,1.22,4.71s.55,3.19.71,4.8a48.4,48.4,0,0,1-.11,9.63A37,37,0,0,1,1040.35,699.33Z"/><path class="cls-42" d="M1128.4,613.13a39.75,39.75,0,0,1,8.52-2.56,39.23,39.23,0,0,1,4.48-.61c.75-.11,1.5-.08,2.26-.12s1.52-.07,2.28-.05a51.32,51.32,0,0,1,17.9,3.6c1.4.63,2.86,1.17,4.21,1.93l2,1.08,2,1.24a43.6,43.6,0,0,1,3.8,2.7c.63.46,1.17,1,1.77,1.52s1.19,1,1.72,1.58a34.74,34.74,0,0,1,3.14,3.55,21.46,21.46,0,0,1,1.44,2l1.25,2.12a24.69,24.69,0,0,1,2.71,9.51,22.28,22.28,0,0,1-1.55,9.82,23.51,23.51,0,0,1-5.63,8.24,22,22,0,0,1-4.07,3,17.5,17.5,0,0,1-2.29,1.15,8.91,8.91,0,0,1-1.24.48,9.49,9.49,0,0,1-1.36.38,13.64,13.64,0,0,1-10.64-2,12.56,12.56,0,0,1-3.72-3.86,13.24,13.24,0,0,1-1.17-2.39,9.31,9.31,0,0,1-.53-2.76,8.93,8.93,0,0,1,5.66-8.66,6.74,6.74,0,0,1,5.51.17,6,6,0,0,1,3.24,4.05,4.07,4.07,0,0,1-2.12,4.42,2.94,2.94,0,0,1-2.44.19,2.47,2.47,0,0,1-1.53-1.61,2.38,2.38,0,0,0,1.67,1.11,2.17,2.17,0,0,0,1.75-.54,2.63,2.63,0,0,0,.84-3.08,4,4,0,0,0-2.47-2.13,3.67,3.67,0,0,0-3,.39,5.24,5.24,0,0,0-2.62,5.34,4.9,4.9,0,0,0,.46,1.4,8.35,8.35,0,0,0,.89,1.41,8.2,8.2,0,0,0,8.73,2.83,4.63,4.63,0,0,0,.74-.26,5.92,5.92,0,0,0,.77-.37,12.83,12.83,0,0,0,1.58-.89,15.45,15.45,0,0,0,2.8-2.3,17.11,17.11,0,0,0,4.93-13.15,18.43,18.43,0,0,0-1.91-7,27.93,27.93,0,0,0-4.5-6.22,47,47,0,0,0-13.06-9.66,55.69,55.69,0,0,0-16-5.1A54.87,54.87,0,0,0,1128.4,613.13Z"/><path class="cls-43" d="M1273.09,696.28a45.52,45.52,0,0,1-24.24-20c-.7-1.17-1.29-2.4-1.89-3.63s-1.08-2.51-1.5-3.82a35.62,35.62,0,0,1-1.1-4.07c-.16-.69-.19-1.42-.29-2.13a14.17,14.17,0,0,1-.15-2.16l0-2.19c.07-.73.19-1.45.29-2.18a13.22,13.22,0,0,1,.48-2.16,15.76,15.76,0,0,1,.66-2.12,22.65,22.65,0,0,1,4.73-7.55,23.64,23.64,0,0,1,7.25-5.26,23.11,23.11,0,0,1,8.84-2.1,17.4,17.4,0,0,1,2.37.06,8.75,8.75,0,0,1,1.25.18,10.66,10.66,0,0,1,1.24.3,13.42,13.42,0,0,1,4.45,2.24,13,13,0,0,1,5,8.12,11.72,11.72,0,0,1-.13,4.85,9.22,9.22,0,0,1-2.57,4.33,9.06,9.06,0,0,1-6.83,2.56,7,7,0,0,1-2.52-.54c-3.22-1.38-4.89-5.16-3.29-8.14a4.19,4.19,0,0,1,4-2.05,2.85,2.85,0,0,1,1.95,1,2.4,2.4,0,0,1,.51,1.91,2.18,2.18,0,0,0-2.46-1.93,2.7,2.7,0,0,0-2.27,1.83,3.41,3.41,0,0,0,.53,2.73,3.63,3.63,0,0,0,2.2,1.53,3.42,3.42,0,0,0,1.32.05,5.53,5.53,0,0,0,1.4-.35,5.25,5.25,0,0,0,2.19-1.62,4.9,4.9,0,0,0,1-2.36,7.58,7.58,0,0,0-.28-2.74,7.9,7.9,0,0,0-3.29-4.46,8.09,8.09,0,0,0-2.54-1.07,8.52,8.52,0,0,0-2.89-.12,17.66,17.66,0,0,0-16.12,17.23,9.11,9.11,0,0,0,0,1.65c0,.55,0,1.11.13,1.67.24,1.11.32,2.21.68,3.37a39,39,0,0,0,2.4,6.74C1257.62,682.7,1264.49,690.4,1273.09,696.28Z"/><path class="cls-44" d="M1067.79,672.4a88.76,88.76,0,0,0,7.68-16.12c1-2.79,1.88-5.62,2.66-8.46s1.4-5.73,1.92-8.63a101.8,101.8,0,0,0,1.73-17.47,90.38,90.38,0,0,0-1.36-17.34,71,71,0,0,0-5.09-16.4,58.51,58.51,0,0,0-4.18-7.41c-.85-1.16-1.62-2.37-2.54-3.47l-1.34-1.69-1.42-1.61a64.61,64.61,0,0,0-13-11.24,56.67,56.67,0,0,0-7.54-4.09l-1-.45-1-.39-2-.77-2-.65-1-.32-1-.25a47.71,47.71,0,0,0-8.36-1.48l-2.06-.07c-.35,0-.69,0-1,0l-1,.07-2,.14-2,.33c-.34.06-.68.1-1,.17l-1,.27c-.66.18-1.33.33-2,.53a35,35,0,0,0-3.82,1.54,32.44,32.44,0,0,0-6.91,4.41l-1.54,1.37c-.52.44-.94,1-1.42,1.47a31.51,31.51,0,0,0-2.6,3.17c-.4.56-.72,1.16-1.09,1.73a12.53,12.53,0,0,0-1,1.78l-.9,1.84c-.26.63-.48,1.27-.72,1.91l-.36,1c-.11.32-.18.66-.27,1l-.51,2c-.13.67-.21,1.35-.32,2a13.06,13.06,0,0,0-.23,2,17.87,17.87,0,0,0,1.15,7.64,18.85,18.85,0,0,0,11.15,10.8,14.69,14.69,0,0,0,1.95.61,15.35,15.35,0,0,0,2,.4,11.35,11.35,0,0,0,3.9,0,11.71,11.71,0,0,0,6.7-3.77,11.18,11.18,0,0,0,2-3.37,10.22,10.22,0,0,0,.75-3.82,7,7,0,0,0-4.24-6,8.2,8.2,0,0,0-2-.55,4.46,4.46,0,0,0-1.92.16,4.39,4.39,0,0,0-2.81,2.61,3.28,3.28,0,0,0-.23,1.94,2.8,2.8,0,0,0,1.1,1.64,2.64,2.64,0,0,0,2,.47A1.85,1.85,0,0,0,1018,590a2,2,0,0,1-1.3,1.78,3,3,0,0,1-2.37-.29,3.49,3.49,0,0,1-1.57-1.87,3.54,3.54,0,0,1-.18-1.25,5.53,5.53,0,0,1,.18-1.21,5.63,5.63,0,0,1,3.29-3.65,5.91,5.91,0,0,1,2.57-.44,9.66,9.66,0,0,1,2.49.45,9.13,9.13,0,0,1,6.19,7.53,9.87,9.87,0,0,1,0,2.55,10,10,0,0,1-.2,1.22,8.26,8.26,0,0,1-.31,1.21,14.07,14.07,0,0,1-2.26,4.47A15.2,15.2,0,0,1,1016,606a15.51,15.51,0,0,1-5.2.32,18.72,18.72,0,0,1-2.48-.34,17.17,17.17,0,0,1-2.45-.6A23.28,23.28,0,0,1,989.3,582.5a17.63,17.63,0,0,1,.19-2.45c.11-.8.19-1.61.32-2.4l.55-2.37c.09-.4.17-.8.28-1.18l.39-1.16c.27-.76.52-1.54.81-2.3l1-2.22a18.5,18.5,0,0,1,1.14-2.16c.43-.7.81-1.43,1.27-2.11a38.73,38.73,0,0,1,3-3.89c.56-.6,1.06-1.26,1.67-1.81l1.81-1.69a36,36,0,0,1,8.27-5.44,42.34,42.34,0,0,1,4.62-1.91c.79-.25,1.6-.45,2.41-.68l1.2-.32c.41-.09.83-.15,1.24-.23l2.47-.42c.83-.08,1.67-.13,2.5-.19l1.25-.09c.42,0,.84,0,1.25,0l2.51.07a53.65,53.65,0,0,1,9.63,1.61l1.18.31,1.15.37,2.31.76,2.25.89,1.12.46,1.09.51a63.61,63.61,0,0,1,8.41,4.65c1.29.93,2.65,1.78,3.87,2.79l1.88,1.47,1.8,1.55c1.21,1,2.3,2.17,3.45,3.26l1.61,1.73c.55.57,1.07,1.16,1.56,1.78l1.51,1.81,1.42,1.89c1,1.24,1.79,2.58,2.68,3.87a65.54,65.54,0,0,1,4.42,8.36,70.59,70.59,0,0,1,3.07,8.84,81.59,81.59,0,0,1,1.8,9.09,95.76,95.76,0,0,1-2.35,36.31,101.05,101.05,0,0,1-6.1,17.09c-1.31,2.73-2.69,5.42-4.26,8A73.51,73.51,0,0,1,1067.79,672.4Z"/><path class="cls-45" d="M193.87,651.66a4.6,4.6,0,1,0,4.6-4.49A4.55,4.55,0,0,0,193.87,651.66Z"/><path class="cls-46" d="M207.14,625.84a4.6,4.6,0,1,0,4.6-4.5A4.55,4.55,0,0,0,207.14,625.84Z"/><ellipse class="cls-47" cx="144.43" cy="656.9" rx="4.59" ry="4.49"/><path class="cls-48" d="M305.26,679a4.6,4.6,0,1,0,4.6-4.49A4.55,4.55,0,0,0,305.26,679Z"/><path class="cls-49" d="M296.62,648.74a4.6,4.6,0,1,0,4.6-4.5A4.55,4.55,0,0,0,296.62,648.74Z"/><path class="cls-50" d="M545.15,656.65a3.28,3.28,0,1,0,3.28-3.21A3.24,3.24,0,0,0,545.15,656.65Z"/><path class="cls-51" d="M543.29,641.57a3.28,3.28,0,1,0,3.28-3.21A3.25,3.25,0,0,0,543.29,641.57Z"/><path class="cls-52" d="M500.41,641.35a3.28,3.28,0,1,0,3.28-3.21A3.24,3.24,0,0,0,500.41,641.35Z"/><path class="cls-53" d="M447.9,588.49a3.29,3.29,0,1,0,3.28-3.21A3.25,3.25,0,0,0,447.9,588.49Z"/><path class="cls-54" d="M460.15,654.41a3.29,3.29,0,1,0,3.29-3.21A3.25,3.25,0,0,0,460.15,654.41Z"/><path class="cls-55" d="M304.39,562.13a3.28,3.28,0,1,0,3.28-3.21A3.25,3.25,0,0,0,304.39,562.13Z"/><path class="cls-56" d="M474.48,694.64a3.29,3.29,0,1,0,3.29-3.21A3.24,3.24,0,0,0,474.48,694.64Z"/><path class="cls-57" d="M434.12,676.88a3.28,3.28,0,1,0,3.28-3.21A3.25,3.25,0,0,0,434.12,676.88Z"/><path class="cls-58" d="M503.25,690.79a3.28,3.28,0,1,0,3.28-3.21A3.25,3.25,0,0,0,503.25,690.79Z"/><path class="cls-59" d="M537.38,530.81a4.6,4.6,0,1,0,4.6-4.49A4.55,4.55,0,0,0,537.38,530.81Z"/><path class="cls-60" d="M466.14,726.36a96.06,96.06,0,0,1-12.36-6,78.19,78.19,0,0,1-11-7.6,50.4,50.4,0,0,1-15.06-20.42,29.2,29.2,0,0,1-2.24-11.84c.14-3.85,1.67-7.51,4.51-9.62a8.13,8.13,0,0,1,4.91-1.58,7.86,7.86,0,0,1,5,2,4.25,4.25,0,0,1,1.41,4.77,3.85,3.85,0,0,1-1.88,2.14,4.73,4.73,0,0,1-3.22.35,5,5,0,0,0,3.56.61,5.39,5.39,0,0,0,3.21-2.22,6,6,0,0,0,1-3.94,7.32,7.32,0,0,0-1.56-3.86c-.22-.27-.43-.55-.66-.8l-.75-.7a6.06,6.06,0,0,0-.79-.65c-.28-.19-.55-.41-.86-.58a11.41,11.41,0,0,0-3.95-1.48,12.66,12.66,0,0,0-8.33,1.52,15.34,15.34,0,0,0-5.76,5.94,19.49,19.49,0,0,0-2.32,7.59,28,28,0,0,0,.3,7.61,40.59,40.59,0,0,0,2,7.12,51.82,51.82,0,0,0,3.19,6.58,46.34,46.34,0,0,0,4.22,6,50.77,50.77,0,0,0,10.79,9.66,59.5,59.5,0,0,0,12.79,6.39,58.75,58.75,0,0,0,6.81,2A44.63,44.63,0,0,0,466.14,726.36Z"/><path class="cls-61" d="M336.48,611.64a96,96,0,0,1-12.36-6,78.19,78.19,0,0,1-11-7.6,50.46,50.46,0,0,1-15.06-20.42,29.23,29.23,0,0,1-2.24-11.84c.14-3.85,1.67-7.51,4.52-9.62a8.07,8.07,0,0,1,4.9-1.59,8,8,0,0,1,5,2,4.27,4.27,0,0,1,1.41,4.77,4,4,0,0,1-1.89,2.14,4.73,4.73,0,0,1-3.22.35,5,5,0,0,0,3.56.6,5.42,5.42,0,0,0,3.21-2.21,6,6,0,0,0,1-3.94,7.21,7.21,0,0,0-1.56-3.86,10.15,10.15,0,0,0-.66-.81l-.75-.69a5.46,5.46,0,0,0-.79-.65,7.19,7.19,0,0,0-.86-.58,11,11,0,0,0-3.95-1.48,12.61,12.61,0,0,0-8.33,1.52,15.27,15.27,0,0,0-5.76,5.94,19.56,19.56,0,0,0-2.32,7.58,28,28,0,0,0,.3,7.61,40.46,40.46,0,0,0,2,7.13,52.48,52.48,0,0,0,3.19,6.58,46.94,46.94,0,0,0,4.22,6,50.23,50.23,0,0,0,10.79,9.66,59.54,59.54,0,0,0,12.79,6.4,58.7,58.7,0,0,0,6.81,2A42.38,42.38,0,0,0,336.48,611.64Z"/><path class="cls-62" d="M210.54,683.41a43.75,43.75,0,0,0,5.67-4.11,59.59,59.59,0,0,0,5.09-4.84A57.81,57.81,0,0,0,229.59,663a49,49,0,0,0,5-13.47,45.71,45.71,0,0,0,.9-7.2,50.55,50.55,0,0,0-.3-7.28,39.91,39.91,0,0,0-1.6-7.22,28.24,28.24,0,0,0-3.35-6.88,20,20,0,0,0-5.65-5.66,15.76,15.76,0,0,0-7.92-2.65,12.68,12.68,0,0,0-8.11,2.44,11,11,0,0,0-2.79,3.11,7.77,7.77,0,0,0-.48.9,6,6,0,0,0-.4.94l-.33,1c-.09.33-.14.68-.2,1a7.16,7.16,0,0,0,.45,4.13,6.07,6.07,0,0,0,2.78,3,5.48,5.48,0,0,0,3.89.51,4.91,4.91,0,0,0,2.87-2.16,4.61,4.61,0,0,1-3,1.15,4,4,0,0,1-2.69-1,4.26,4.26,0,0,1-1-4.87,7.74,7.74,0,0,1,3.48-4,8.22,8.22,0,0,1,5.09-.82c3.53.58,6.61,3.12,8.57,6.47a29.48,29.48,0,0,1,3.64,11.51,49.34,49.34,0,0,1-3.65,24.92,75.44,75.44,0,0,1-6.1,11.71A94,94,0,0,1,210.54,683.41Z"/><path class="cls-63" d="M504.08,643.38a4.76,4.76,0,0,1-3.44.52,4.56,4.56,0,0,1-2.8-1.93,6.41,6.41,0,0,1-.29-6.53,7.81,7.81,0,0,1,5.49-3.73,10,10,0,0,1,9.33,2.95,11.5,11.5,0,0,1,1.84,2.8,13.88,13.88,0,0,1-.5,12.9,14,14,0,0,1-4.59,4.8,22,22,0,0,1-6.26,2.69,22.85,22.85,0,0,1-6.79.6,21.14,21.14,0,0,1-6.62-1.52,20.54,20.54,0,0,1-5.77-3.44,22.22,22.22,0,0,1-4.35-5c-.53-1-1.11-2-1.61-3s-.92-2.06-1.27-3.13a30.75,30.75,0,0,1,2.75-25.77,31.18,31.18,0,0,1,9.2-9.59l1.4-.93c.49-.28,1-.54,1.51-.81,1-.52,2-1.09,3-1.59a53.14,53.14,0,0,1,13.13-3.89,52.25,52.25,0,0,1,6.84-.44,43.64,43.64,0,0,1,13.51,1.92l1.64.47a15.35,15.35,0,0,1,1.6.59c1.06.42,2.13.8,3.17,1.26l3,1.53.75.38.72.45,1.44.91,1.43.9c.48.31.9.68,1.35,1,.88.7,1.8,1.36,2.65,2.09l2.45,2.33.61.57c.2.21.37.43.56.64l1.1,1.27a50.05,50.05,0,0,1,4,5.37c.6,1,1.16,2,1.74,2.93s1.07,2,1.6,3a67.62,67.62,0,0,1-10.55,75.69,69.29,69.29,0,0,1-10.1,9.1c-.93.65-1.85,1.34-2.78,2s-1.86,1.22-2.83,1.77l-3,1.52c-1,.48-2.1.94-3.14,1.41a97.82,97.82,0,0,1-13.07,4.49,103.13,103.13,0,0,1-13.62,2.46,93.69,93.69,0,0,1-27.61-1.3,99.47,99.47,0,0,1-26.11-9,84.29,84.29,0,0,1-11.62-7.25,80.71,80.71,0,0,1-10.2-9.09,132.74,132.74,0,0,1-16.59-22.06c-4.94-7.91-9.59-16.15-14.86-24.16-2.63-4-5.41-7.94-8.42-11.74a115.27,115.27,0,0,0-9.78-10.85c-1.71-1.74-3.64-3.3-5.48-4.93-.91-.84-1.93-1.53-2.9-2.29l-3-2.22-3.1-2c-1-.67-2.05-1.38-3.15-2-2.18-1.18-4.29-2.46-6.57-3.45l-3.37-1.57-3.46-1.34c-2.29-1-4.7-1.61-7.07-2.36-1.17-.4-2.4-.63-3.61-.92l-3.64-.83-3.69-.56a33.26,33.26,0,0,0-3.71-.46,73.5,73.5,0,0,0-29.64,3.12,71.57,71.57,0,0,0-13.61,6.24,58.47,58.47,0,0,0-11.69,9.3,57.22,57.22,0,0,0-16.14,40.14,50.21,50.21,0,0,0,2.18,14.56A55.1,55.1,0,0,0,267.43,703,51.1,51.1,0,0,0,293.87,716a40.73,40.73,0,0,0,7.49.52l1.9-.06c.63,0,1.26-.14,1.89-.21L307,716l1.85-.42a32.92,32.92,0,0,0,13.41-6.65,33.61,33.61,0,0,0,9-11.65,31.79,31.79,0,0,0,2.86-14.31,21.14,21.14,0,0,0-5.75-13.43,21.9,21.9,0,0,0-13.05-6.74,16.54,16.54,0,0,0-7.49.49,15.24,15.24,0,0,0-3.42,1.6,15.08,15.08,0,0,0-2.85,2.43,13.88,13.88,0,0,0-3.35,6.51,12.29,12.29,0,0,0-.24,1.81,9.53,9.53,0,0,0,0,1.85,8.85,8.85,0,0,0,1.12,3.54,9.38,9.38,0,0,0,5.77,4.44,8.49,8.49,0,0,0,3.72.2,6.26,6.26,0,0,0,3.23-1.8,5.9,5.9,0,0,0,1.58-3.24,4,4,0,0,0-1-3.4,3.92,3.92,0,0,0-3.3-1.28,2.53,2.53,0,0,0-2.21,2.45,2.49,2.49,0,0,1,2.23-2.33,3.76,3.76,0,0,1,3.09,1.32,3.66,3.66,0,0,1,.76,3.18,5.45,5.45,0,0,1-1.56,3,5.7,5.7,0,0,1-3,1.53,7.93,7.93,0,0,1-3.38-.3,8.54,8.54,0,0,1-5.08-4.19,8.24,8.24,0,0,1-.9-3.16,9.24,9.24,0,0,1,.05-1.66,13.35,13.35,0,0,1,.27-1.66,12.65,12.65,0,0,1,3.19-5.82,13.62,13.62,0,0,1,2.62-2.11,13.41,13.41,0,0,1,3.08-1.35,14.82,14.82,0,0,1,6.73-.25,19.87,19.87,0,0,1,11.69,6.42,18.78,18.78,0,0,1,4.81,12.1,29.11,29.11,0,0,1-3,13,30.53,30.53,0,0,1-8.47,10.35,29.8,29.8,0,0,1-12.13,5.7l-1.65.36-1.69.19c-.56,0-1.11.16-1.68.16l-1.69,0a36.31,36.31,0,0,1-6.81-.61,46.71,46.71,0,0,1-24-12.31,51.25,51.25,0,0,1-14-22.82,45.39,45.39,0,0,1-1.79-13.19,52.1,52.1,0,0,1,15.16-36.28,53.75,53.75,0,0,1,10.61-8.29,65.93,65.93,0,0,1,12.42-5.57,67.16,67.16,0,0,1,27.12-2.62c1.15.06,2.28.28,3.42.45l3.4.55,3.35.8a33.9,33.9,0,0,1,3.33.87c2.19.71,4.41,1.32,6.52,2.24l3.2,1.27,3.11,1.48c2.11.93,4.06,2.14,6.06,3.25,1,.54,2,1.2,2.92,1.82l2.87,1.88,2.74,2.07c.9.7,1.85,1.35,2.68,2.13,1.71,1.52,3.48,3,5.09,4.6a110.49,110.49,0,0,1,9.19,10.25c2.85,3.62,5.51,7.41,8.05,11.3,5.09,7.78,9.69,16,14.71,24.07s10.57,16.11,17.38,23.2a88.17,88.17,0,0,0,11.06,9.79,91.87,91.87,0,0,0,12.6,7.82,105.92,105.92,0,0,0,28,9.55,100.29,100.29,0,0,0,29.6,1.31,109.61,109.61,0,0,0,14.62-2.68,99.29,99.29,0,0,0,14-4.91c1.12-.52,2.25-1,3.37-1.55l3.36-1.74c1.09-.64,2.14-1.36,3.2-2s2-1.45,3-2.17a75.69,75.69,0,0,0,10.92-10,73.8,73.8,0,0,0,14.81-25.26,72.2,72.2,0,0,0-4.16-56.77c-.59-1.07-1.15-2.15-1.76-3.21s-1.26-2.09-1.92-3.12a56.47,56.47,0,0,0-4.55-5.9L553,611l-.62-.69-.69-.63-2.75-2.54c-1-.8-2-1.52-3-2.28-.51-.37-1-.77-1.51-1.1l-1.6-1-1.6-1-.8-.49-.85-.41-3.37-1.65c-1.15-.49-2.34-.89-3.51-1.34-.59-.2-1.16-.47-1.77-.62l-1.81-.49a54.27,54.27,0,0,0-7.36-1.51,55.38,55.38,0,0,0-7.5-.34,58.64,58.64,0,0,0-7.48.62,58.05,58.05,0,0,0-14.21,4.51c-1.11.56-2.17,1.19-3.26,1.78-.54.3-1.09.59-1.62.91l-1.56,1.08a34.69,34.69,0,0,0-10.09,10.94,33.55,33.55,0,0,0-2.39,28.51c.42,1.15,1,2.24,1.48,3.37s1.22,2.13,1.84,3.19a24.8,24.8,0,0,0,5.05,5.53,24.18,24.18,0,0,0,13.9,5.16,24.84,24.84,0,0,0,7.44-.84,24.3,24.3,0,0,0,6.76-3.12,15.33,15.33,0,0,0,5.18-19.68,12.83,12.83,0,0,0-2.12-3,10.54,10.54,0,0,0-3-2.18,10.85,10.85,0,0,0-10.68.73,7.09,7.09,0,0,0-2.4,2.76,6.83,6.83,0,0,0,.53,6.89,4.8,4.8,0,0,0,6.46,1.27Z"/><path class="cls-64" d="M281.4,615.43a54.85,54.85,0,0,0-9.44,4.89,67.46,67.46,0,0,0-8.4,6.56c-2.64,2.38-5.1,4.92-7.5,7.5s-4.76,5.2-7.07,7.84c-4.59,5.29-9.23,10.49-14.05,15.52s-9.72,10-14.87,14.62c-10.29,9.26-21.36,17.82-33.75,23.51a79.88,79.88,0,0,1-9.48,3.56c-1.6.54-3.25.85-4.87,1.26-.82.16-1.64.29-2.47.43l-1.23.21-1.24.13-2.48.24-2.48.07a22.81,22.81,0,0,1-2.48,0c-.82-.06-1.65-.05-2.47-.15a44.74,44.74,0,0,1-4.89-.75,43.64,43.64,0,0,1-4.79-1.22c-.81-.19-1.57-.54-2.35-.8s-1.57-.53-2.32-.88c-1.51-.71-3.06-1.31-4.5-2.15l-2.21-1.19-2.15-1.35c-1.48-.9-2.77-1.84-4.11-2.76a33.38,33.38,0,0,1-6.53-6.85,32.9,32.9,0,0,1-4.08-8.49,29.49,29.49,0,0,1-1.35-9.33,34,34,0,0,1,.39-4.72l.51-2.32a6.79,6.79,0,0,1,.32-1.15l.37-1.13.36-1.13c.15-.37.32-.73.48-1.1.34-.72.61-1.47,1-2.17l1.19-2.08c.4-.7.88-1.26,1.3-1.91a20,20,0,0,1,7.16-5.73,20.66,20.66,0,0,1,18.27.31,12.68,12.68,0,0,1,6.28,6.33,12.42,12.42,0,0,1,.48,8.92,11.82,11.82,0,0,1-2.15,4,8.21,8.21,0,0,1-3.76,2.4,8.71,8.71,0,0,1-4.59.15,9.22,9.22,0,0,1-2.18-.85,5.23,5.23,0,0,1-1.72-1.41,5.3,5.3,0,0,1-1.06-4.26,5.62,5.62,0,0,1,.87-2.13,3.62,3.62,0,0,1,1.83-1.29,3.86,3.86,0,0,1,2.33,0,2.67,2.67,0,0,1,1.74,1.48,2.4,2.4,0,0,1-.23,2.3,1.77,1.77,0,0,1-2.28.48,1.91,1.91,0,0,0,2.5-.31,2.86,2.86,0,0,0-.23-3.87,4.19,4.19,0,0,0-1.22-.79,4.74,4.74,0,0,0-5.42,1.25,6.87,6.87,0,0,0-1.33,2.57,7,7,0,0,0,.95,5.65,7.58,7.58,0,0,0,2.16,2.1A11.22,11.22,0,0,0,156,664a11.89,11.89,0,0,0,1.83-2.36l.38-.61.33-.65a13.12,13.12,0,0,0,.59-1.33,15.76,15.76,0,0,0,0-11.43,16.33,16.33,0,0,0-3.08-5.05,17.26,17.26,0,0,0-4.66-3.68,24.74,24.74,0,0,0-5.35-2.32c-1-.22-1.9-.49-2.86-.64a24.3,24.3,0,0,0-2.93-.32,25.63,25.63,0,0,0-21,9.06c-.58.78-1.23,1.56-1.72,2.37l-1.46,2.43c-.49.81-.83,1.69-1.25,2.54-.2.43-.41.85-.6,1.29l-.47,1.33-.47,1.34a9.13,9.13,0,0,0-.41,1.35l-.66,2.76a37.86,37.86,0,0,0-.6,5.63A35.31,35.31,0,0,0,113,676.9a37.08,37.08,0,0,0,4.82,10.32,39.79,39.79,0,0,0,7.86,8.38c1.54,1.1,3.1,2.23,4.63,3.17l2.31,1.47,2.45,1.35c1.6.94,3.34,1.65,5,2.44.84.41,1.75.68,2.62,1s1.75.7,2.67.92a54.07,54.07,0,0,0,5.51,1.37,52.81,52.81,0,0,0,5.62.81c.94.11,1.89.1,2.84.15a26.72,26.72,0,0,0,2.83,0l2.84-.1,2.81-.3,1.4-.15,1.39-.25c.92-.17,1.85-.32,2.77-.51,1.8-.47,3.65-.83,5.4-1.44a74,74,0,0,0,10.32-4,115.19,115.19,0,0,0,18.47-11.44,160.89,160.89,0,0,0,16.18-14,300.34,300.34,0,0,0,27.84-31.84c4.25-5.53,8.56-11,13.31-16.09A61.55,61.55,0,0,1,281.4,615.43Z"/><path class="cls-65" d="M543.62,529.38a2.1,2.1,0,0,1,.91,2.13,3,3,0,0,1-1.41,1.77,3.58,3.58,0,0,1-4.15-.18,6.76,6.76,0,0,1-2.58-3.55,6.21,6.21,0,0,1,.21-4.13,7.69,7.69,0,0,1,.47-.9c.18-.3.44-.62.65-.93a7.67,7.67,0,0,1,.72-.88,6.81,6.81,0,0,1,.8-.81A12.91,12.91,0,0,1,551.65,519a14.39,14.39,0,0,1,4,2l1,.65.94.73.94.72c.32.24.58.53.87.79a22,22,0,0,1,5.34,7.3c2.34,5.48,1.87,11.8-.43,17.7a47.37,47.37,0,0,1-4.45,8.59,46.36,46.36,0,0,1-2.81,4.09l-1.51,2-.76,1-.82,1c-2.18,2.72-4.39,5.43-6.51,8.26-1.06,1.42-2.12,2.85-3.12,4.35a46.47,46.47,0,0,0-2.8,4.74,24.74,24.74,0,0,0-3.11,10.89,16.68,16.68,0,0,0,.94,5.78,19.28,19.28,0,0,0,2.68,5c4.48,6,10.58,9.48,14.66,15.2a37.46,37.46,0,0,0-5.79-8.77,56.87,56.87,0,0,1-6-8.18,14,14,0,0,1-2-8.79,21.55,21.55,0,0,1,3.31-8.64,72.36,72.36,0,0,1,6-8q3.32-3.91,6.76-7.85l.86-1,.85-1,1.69-2.12a52.54,52.54,0,0,0,3.2-4.43,53.64,53.64,0,0,0,5.15-9.79A33.94,33.94,0,0,0,573,540.08a25.93,25.93,0,0,0-2.35-11.46,26.9,26.9,0,0,0-7.27-9.11c-.37-.31-.73-.64-1.12-.92l-1.19-.81-1.18-.82c-.41-.25-.84-.47-1.25-.7A19.82,19.82,0,0,0,553,514a17.12,17.12,0,0,0-12,1.58,16.89,16.89,0,0,0-4.66,3.71,11.14,11.14,0,0,0-.92,1.16,14.33,14.33,0,0,0-.81,1.22c-.23.44-.48.82-.7,1.3l-.31.72-.23.76a9,9,0,0,0,.51,6,8.66,8.66,0,0,0,4.07,4.22,5.13,5.13,0,0,0,3,.59,4.64,4.64,0,0,0,3.62-2.33,2.78,2.78,0,0,0,.41-1.38A2.32,2.32,0,0,0,543.62,529.38Z"/><path class="cls-66" d="M566.05,642.19c.47-4.18-1.74-8.7-5.47-11.53a16.79,16.79,0,0,0-13.73-2.95,11.61,11.61,0,0,0-3.84,1.58,10.87,10.87,0,0,0-3,2.87,10.2,10.2,0,0,0-1.7,7.66,5.84,5.84,0,0,0,.22.94,9.55,9.55,0,0,0,.34,1,6,6,0,0,0,1.21,1.91,6.23,6.23,0,0,0,3.79,2,6,6,0,0,0,2-.13,6.65,6.65,0,0,0,.92-.32,3.34,3.34,0,0,0,.92-.58,2.57,2.57,0,0,0,.58-3.34,1.93,1.93,0,0,1-1.57,1.75,1.72,1.72,0,0,1-.46,0,3.38,3.38,0,0,1-.57-.11,2.83,2.83,0,0,1-1-.42,2.66,2.66,0,0,1-1-1.35,2.29,2.29,0,0,1-.09-.72v-.47a2.8,2.8,0,0,1,0-.51,6,6,0,0,1,1.53-3.42,5.85,5.85,0,0,1,3.12-1.72,15.41,15.41,0,0,1,9.41.87A18.85,18.85,0,0,1,566.05,642.19Z"/><path class="cls-67" d="M567.48,652.49A18.63,18.63,0,0,1,560.7,661a15.37,15.37,0,0,1-9.07,2.6,5.15,5.15,0,0,1-1.8-.29,5.23,5.23,0,0,1-1.59-.82,6,6,0,0,1-2.18-3.07,4.05,4.05,0,0,1-.12-.5l-.11-.46a2.15,2.15,0,0,1,0-.72,2.61,2.61,0,0,1,.77-1.53,3.37,3.37,0,0,1,.85-.59,3.65,3.65,0,0,1,.53-.2,1.63,1.63,0,0,1,.46-.11,2,2,0,0,1,1.88,1.43,2.6,2.6,0,0,0-1.22-3.18,3.17,3.17,0,0,0-1-.39,6.31,6.31,0,0,0-1-.15,5.87,5.87,0,0,0-2,.25,6.16,6.16,0,0,0-3.35,2.62,6,6,0,0,0-.81,2.11,8.38,8.38,0,0,0-.14,1,5.22,5.22,0,0,0,0,1,10.26,10.26,0,0,0,3.15,7.2,11.2,11.2,0,0,0,3.48,2.27,11.8,11.8,0,0,0,4.07.84,16.7,16.7,0,0,0,12.92-5.44C567.46,661.35,568.75,656.5,567.48,652.49Z"/><path class="cls-68" d="M497.27,728.73A32.45,32.45,0,0,0,521.55,719a34,34,0,0,0,9.3-18.13,21.16,21.16,0,0,0,0-7.36A20.65,20.65,0,0,0,523.18,681a21,21,0,0,0-6.61-3.46,24.06,24.06,0,0,0-3.64-.77,15,15,0,0,0-2-.14,13.81,13.81,0,0,0-2,.19,12.07,12.07,0,0,0-6.92,3.73,11.2,11.2,0,0,0-3,6.85,6.62,6.62,0,0,0,1,3.88,6.25,6.25,0,0,0,2.92,2.47,6.14,6.14,0,0,0,1.81.44,3.67,3.67,0,0,0,1.9-.26,3,3,0,0,0,1.81-2.75A2.6,2.6,0,0,1,506.3,693a2.51,2.51,0,0,1-1.29-.18,4.6,4.6,0,0,1-1.19-.66,3.92,3.92,0,0,1-1.46-4.26,7.93,7.93,0,0,1,7.22-5.84,9.14,9.14,0,0,1,1.17,0,12.23,12.23,0,0,1,1.21.24c.44.13.89.19,1.31.35l1.27.45A16.17,16.17,0,0,1,519,685.9a15.46,15.46,0,0,1,3.31,4,13.86,13.86,0,0,1,1.78,4.8,15.12,15.12,0,0,1,.07,5.16,32.26,32.26,0,0,1-1.29,5.54,33.87,33.87,0,0,1-5.4,10.16A38.56,38.56,0,0,1,497.27,728.73Z"/><path class="cls-69" d="M497.1,728.71A39,39,0,0,1,474,721.3a34.62,34.62,0,0,1-8-8.38,32.09,32.09,0,0,1-2.75-5,15,15,0,0,1-1.34-5,13.89,13.89,0,0,1,.41-5.09,15.35,15.35,0,0,1,2.09-4.72,16.14,16.14,0,0,1,3.57-3.86l1.11-.76c.36-.26.78-.44,1.17-.67a9.56,9.56,0,0,1,1.1-.56,10.16,10.16,0,0,1,1.11-.33,8,8,0,0,1,8.56,3.75,3.92,3.92,0,0,1-.25,4.49,4.09,4.09,0,0,1-1,.93,2.49,2.49,0,0,1-1.19.52,2.65,2.65,0,0,1-2.54-1.17,3,3,0,0,0,2.51,2.18,3.68,3.68,0,0,0,1.89-.25,6,6,0,0,0,1.63-.89,6.22,6.22,0,0,0,2.14-3.15,6.49,6.49,0,0,0-.15-4,11.35,11.35,0,0,0-4.71-5.82,12.19,12.19,0,0,0-7.69-1.8,14,14,0,0,0-2,.35,15,15,0,0,0-1.87.66,23.33,23.33,0,0,0-3.3,1.69,20.73,20.73,0,0,0-5.42,5.06,20.36,20.36,0,0,0-4,14,21.39,21.39,0,0,0,2,7.1,35,35,0,0,0,3.6,5.92A34.63,34.63,0,0,0,471,725.67,32.73,32.73,0,0,0,497.1,728.71Z"/><path class="cls-70" d="M427,698.49a43.08,43.08,0,0,1-3.38-17.75,48.25,48.25,0,0,1,3.52-17.29,49.23,49.23,0,0,1,9.27-14.73,40.16,40.16,0,0,1,3.09-3,14.66,14.66,0,0,1,1.67-1.37l1.71-1.32a23.1,23.1,0,0,1,7.31-3.46,18,18,0,0,1,15.1,2.76,16.76,16.76,0,0,1,5.15,5.84l.41.87.21.44.14.4a7.72,7.72,0,0,1,0,5,8.2,8.2,0,0,1-1.86,3,8.92,8.92,0,0,1-3,2A5.29,5.29,0,0,1,463,660a5.49,5.49,0,0,1-2.88-1.94,3.77,3.77,0,0,1,1.15-6,2.77,2.77,0,0,1,3.42.61,2.26,2.26,0,0,1,.65,1.84,2.34,2.34,0,0,1-1.28,1.71,2.51,2.51,0,0,0,1.79-1.58,2.91,2.91,0,0,0-.31-2.54,4,4,0,0,0-2.1-1.73,4.41,4.41,0,0,0-2.87,0,6.07,6.07,0,0,0-4,3.85,6.13,6.13,0,0,0-.28,2.92,8.11,8.11,0,0,0,1,2.71,8.91,8.91,0,0,0,4.35,3.78,9.66,9.66,0,0,0,6,.43,12.93,12.93,0,0,0,8.54-7.22,12.64,12.64,0,0,0,1.15-5.67,12.18,12.18,0,0,0-.14-1.47,10,10,0,0,0-.31-1.44c-.07-.24-.13-.48-.2-.71l-.25-.63-.5-1.26a21.76,21.76,0,0,0-6.68-8.38,24,24,0,0,0-20.76-4.19,29.48,29.48,0,0,0-9.58,4.63l-2,1.58a20.29,20.29,0,0,0-1.91,1.66,38.31,38.31,0,0,0-3.47,3.63,48,48,0,0,0-9.42,17.2c-.5,1.54-.81,3.15-1.22,4.71s-.55,3.19-.71,4.8a48.4,48.4,0,0,0,.11,9.63A37.22,37.22,0,0,0,427,698.49Z"/><path class="cls-71" d="M339,612.29a40,40,0,0,0-8.53-2.56,39.36,39.36,0,0,0-4.47-.61c-.76-.11-1.51-.08-2.27-.12s-1.52-.07-2.27,0a51.32,51.32,0,0,0-17.91,3.59c-1.4.63-2.86,1.17-4.21,1.93l-2.05,1.09-2,1.23a42,42,0,0,0-3.79,2.7c-.64.46-1.18,1-1.78,1.52s-1.18,1-1.72,1.59a34.75,34.75,0,0,0-3.14,3.54,23.69,23.69,0,0,0-1.44,2l-1.25,2.11a24.69,24.69,0,0,0-2.71,9.51,22.38,22.38,0,0,0,1.56,9.82,23.35,23.35,0,0,0,5.62,8.24,22,22,0,0,0,4.07,3A15.92,15.92,0,0,0,293,662a12.56,12.56,0,0,0,2.59.86,13.63,13.63,0,0,0,10.64-2A12.64,12.64,0,0,0,310,657a13.92,13.92,0,0,0,1.17-2.39,8.83,8.83,0,0,0,.53-2.77,8.93,8.93,0,0,0-5.66-8.66,6.71,6.71,0,0,0-5.5.17,6.05,6.05,0,0,0-3.25,4,4.08,4.08,0,0,0,2.12,4.42,3,3,0,0,0,2.44.2,2.5,2.5,0,0,0,1.53-1.62,2.38,2.38,0,0,1-1.67,1.11,2.17,2.17,0,0,1-1.75-.54,2.65,2.65,0,0,1-.84-3.08,4,4,0,0,1,2.47-2.13,3.63,3.63,0,0,1,3,.4,5.21,5.21,0,0,1,2.62,5.33,4.9,4.9,0,0,1-.46,1.4,9,9,0,0,1-.88,1.41,8.26,8.26,0,0,1-2.51,2.13,8.16,8.16,0,0,1-6.23.7,4.63,4.63,0,0,1-.74-.26,5.31,5.31,0,0,1-.77-.37,13.48,13.48,0,0,1-1.57-.89,15.87,15.87,0,0,1-2.81-2.3,17.11,17.11,0,0,1-4.93-13.14,18.42,18.42,0,0,1,1.91-7,28.25,28.25,0,0,1,4.5-6.22,47.12,47.12,0,0,1,13.06-9.66,55.69,55.69,0,0,1,16-5.1A54.93,54.93,0,0,1,339,612.29Z"/><path class="cls-72" d="M194.27,695.44a45.5,45.5,0,0,0,24.23-20c.7-1.17,1.29-2.4,1.9-3.62s1.07-2.52,1.49-3.83a33.67,33.67,0,0,0,1.1-4.07c.16-.69.19-1.42.29-2.13a13,13,0,0,0,.15-2.16l0-2.19c-.07-.73-.19-1.45-.29-2.18a13.46,13.46,0,0,0-.48-2.16A15.76,15.76,0,0,0,222,651a22.49,22.49,0,0,0-4.73-7.55,23,23,0,0,0-16.09-7.36,17.4,17.4,0,0,0-2.37.06,10.45,10.45,0,0,0-1.25.18,10,10,0,0,0-1.23.3,13.38,13.38,0,0,0-4.46,2.24,13.05,13.05,0,0,0-5,8.12,11.72,11.72,0,0,0,.13,4.85,9.22,9.22,0,0,0,2.57,4.33,9.35,9.35,0,0,0,4.38,2.36,9.23,9.23,0,0,0,2.45.2,7,7,0,0,0,2.52-.54c3.22-1.38,4.9-5.16,3.29-8.14a4.18,4.18,0,0,0-4-2,2.85,2.85,0,0,0-1.95,1,2.41,2.41,0,0,0-.51,1.92,2.18,2.18,0,0,1,2.46-1.94,2.7,2.7,0,0,1,2.27,1.83,3.41,3.41,0,0,1-.53,2.73,3.63,3.63,0,0,1-2.2,1.53,3.42,3.42,0,0,1-1.32,0,5.51,5.51,0,0,1-1.4-.34,5.27,5.27,0,0,1-2.19-1.63,5,5,0,0,1-1-2.36,7.58,7.58,0,0,1,.28-2.74,7.88,7.88,0,0,1,3.3-4.46,8,8,0,0,1,2.53-1.07,8.83,8.83,0,0,1,2.9-.12A17.68,17.68,0,0,1,217,659.63a9.11,9.11,0,0,1,0,1.65c-.05.55,0,1.11-.13,1.67-.24,1.11-.31,2.21-.67,3.37a39.83,39.83,0,0,1-2.4,6.74C209.73,681.86,202.86,689.56,194.27,695.44Z"/><path class="cls-73" d="M399.56,671.56a89.43,89.43,0,0,1-7.68-16.12c-1-2.79-1.88-5.62-2.66-8.46s-1.4-5.73-1.92-8.63a102.81,102.81,0,0,1-1.73-17.47,91.19,91.19,0,0,1,1.36-17.34,70.52,70.52,0,0,1,5.1-16.4,58.44,58.44,0,0,1,4.17-7.41c.85-1.16,1.62-2.37,2.54-3.47l1.34-1.69L401.5,573a64.61,64.61,0,0,1,13-11.24,57.84,57.84,0,0,1,7.54-4.09l1-.45,1-.39,2-.77,2-.65,1-.32,1-.25a46.94,46.94,0,0,1,8.36-1.47l2.07-.08c.34,0,.69,0,1,0l1,.06,2.06.14,2,.33c.34.06.68.1,1,.17l1,.27c.66.18,1.34.34,2,.53a34.3,34.3,0,0,1,3.82,1.55,31.67,31.67,0,0,1,6.91,4.41l1.54,1.36a19.71,19.71,0,0,1,1.42,1.47,31.51,31.51,0,0,1,2.6,3.17c.4.56.73,1.16,1.1,1.73a14.19,14.19,0,0,1,1,1.78l.9,1.84c.26.63.48,1.27.73,1.91l.35,1c.11.32.18.66.27,1l.51,2c.13.67.21,1.35.32,2a12.79,12.79,0,0,1,.23,2,17.85,17.85,0,0,1-1.15,7.64A18.85,18.85,0,0,1,460,600.34a13.35,13.35,0,0,1-1.95.61,15.35,15.35,0,0,1-2,.4,11.3,11.3,0,0,1-3.89,0,11.8,11.8,0,0,1-6.71-3.78,11.06,11.06,0,0,1-2-3.37,10.21,10.21,0,0,1-.74-3.82,7,7,0,0,1,4.23-6,7.71,7.71,0,0,1,2-.55,4.26,4.26,0,0,1,1.91.15,4.39,4.39,0,0,1,2.81,2.61,3.2,3.2,0,0,1,.23,1.94,2.74,2.74,0,0,1-1.1,1.64,2.58,2.58,0,0,1-2,.47,1.85,1.85,0,0,1-1.39-1.52,2,2,0,0,0,1.3,1.78,3,3,0,0,0,2.37-.29,3.46,3.46,0,0,0,1.57-1.87,3.55,3.55,0,0,0,.19-1.25,6.22,6.22,0,0,0-.19-1.21,5.61,5.61,0,0,0-3.28-3.65,6,6,0,0,0-2.58-.44,9.27,9.27,0,0,0-2.49.46,9.1,9.1,0,0,0-6.19,7.53,9.36,9.36,0,0,0,0,2.54,8.37,8.37,0,0,0,.19,1.22,8.26,8.26,0,0,0,.31,1.21,14.07,14.07,0,0,0,2.26,4.47,15.24,15.24,0,0,0,8.51,5.5,15.51,15.51,0,0,0,5.2.32,19.1,19.1,0,0,0,2.49-.34,17,17,0,0,0,2.44-.6,23.28,23.28,0,0,0,16.59-22.82,16.25,16.25,0,0,0-.19-2.46c-.11-.8-.19-1.61-.32-2.4l-.54-2.37c-.1-.39-.18-.79-.29-1.18l-.39-1.16c-.27-.76-.51-1.54-.8-2.3l-1-2.22a15.89,15.89,0,0,0-1.14-2.16c-.42-.7-.81-1.43-1.26-2.11a38.71,38.71,0,0,0-3-3.88c-.56-.61-1.06-1.27-1.67-1.82l-1.8-1.69a36.25,36.25,0,0,0-8.28-5.44,42.19,42.19,0,0,0-4.61-1.91c-.8-.25-1.61-.45-2.41-.67l-1.21-.33c-.41-.09-.82-.15-1.24-.23l-2.47-.42c-.83-.08-1.66-.13-2.5-.19l-1.25-.09c-.42,0-.83,0-1.25,0l-2.51.07a53.8,53.8,0,0,0-9.63,1.61l-1.17.31-1.16.37-2.31.76-2.25.9-1.12.45-1.09.51a63.49,63.49,0,0,0-8.4,4.65c-1.3.93-2.65,1.78-3.88,2.79L405,560.55l-1.79,1.55c-1.22,1-2.31,2.17-3.46,3.26l-1.61,1.73c-.55.57-1.06,1.17-1.56,1.78l-1.51,1.82-1.41,1.88c-1,1.24-1.79,2.58-2.69,3.87a65.54,65.54,0,0,0-4.42,8.36,69,69,0,0,0-3.06,8.84,79.41,79.41,0,0,0-1.81,9.09A95.76,95.76,0,0,0,384,639a100.74,100.74,0,0,0,6.1,17.09c1.31,2.73,2.69,5.42,4.26,8A75.16,75.16,0,0,0,399.56,671.56Z"/><path class="cls-74" d="M644.34,851.57a27.09,27.09,0,0,1-6.58,16.84,28.2,28.2,0,0,1-16,9.39,28.67,28.67,0,0,1-9.57.35,22.85,22.85,0,0,1-15.84-10.35,21.51,21.51,0,0,1-3.11-9.11l-.12-1.21v-1.21a15.85,15.85,0,0,1,.15-2.46,16.78,16.78,0,0,1,1.38-4.78,17.46,17.46,0,0,1,6.52-7.5,17.23,17.23,0,0,1,4.61-2.12,19.49,19.49,0,0,1,2.49-.57,21.86,21.86,0,0,1,2.55-.18,14.23,14.23,0,0,1,9.73,3.46,13.6,13.6,0,0,1,4.71,9.07,11.73,11.73,0,0,1-.67,5.27,11.15,11.15,0,0,1-3.19,4.37,11,11,0,0,1-4.88,2.29,10,10,0,0,1-5.4-.4,7.79,7.79,0,0,1-5-8.36.81.81,0,0,1,.94-.64.79.79,0,0,1,.67.73,6,6,0,0,0,4.44,5.38,7.35,7.35,0,0,0,3.57-.12A8,8,0,0,0,618.8,858c3.65-3.19,2.74-9.58-1-12.82a10,10,0,0,0-6.95-2.52,14.6,14.6,0,0,0-2,.11,16,16,0,0,0-1.94.43,12.94,12.94,0,0,0-3.6,1.61,13.67,13.67,0,0,0-5.16,5.81,14.41,14.41,0,0,0-1.18,7.74,18.78,18.78,0,0,0,2.48,7.67,19.18,19.18,0,0,0,5.58,6,19.55,19.55,0,0,0,7.66,3.17,25.4,25.4,0,0,0,8.52-.09,26.6,26.6,0,0,0,14.92-8,26.29,26.29,0,0,0,6.94-15.51h0a.63.63,0,0,1,.7-.56A.63.63,0,0,1,644.34,851.57Z"/><path class="cls-75" d="M691,863.22A27.07,27.07,0,0,0,683.66,848a26.66,26.66,0,0,0-14.72-7.78,26.19,26.19,0,0,0-8.33-.12,19.71,19.71,0,0,0-7.51,3,18.84,18.84,0,0,0-5.57,5.78,18.3,18.3,0,0,0-2.51,7.55,14.28,14.28,0,0,0,1.06,7.68,13.6,13.6,0,0,0,5.07,5.85,13.36,13.36,0,0,0,3.58,1.69,15.68,15.68,0,0,0,1.94.47,16.51,16.51,0,0,0,2,.17,10.36,10.36,0,0,0,7.18-2.44c4-3.22,5.15-10,1.17-13.5a8.1,8.1,0,0,0-3.37-1.83,7.42,7.42,0,0,0-3.83,0,6,6,0,0,0-4.25,5.76.86.86,0,0,1-1.72.11v0a7.81,7.81,0,0,1,5.23-8,10.39,10.39,0,0,1,9.77,1.93,10.6,10.6,0,0,1,3,4.14,10.93,10.93,0,0,1,.68,5,13.31,13.31,0,0,1-4.43,8.86,14,14,0,0,1-9.49,3.55,21.33,21.33,0,0,1-2.53-.13,20.78,20.78,0,0,1-2.49-.53,17,17,0,0,1-4.64-2,17.56,17.56,0,0,1-6.62-7.46,17.16,17.16,0,0,1-1.44-4.8,16.12,16.12,0,0,1-.17-2.47l0-1.23.11-1.22a22.24,22.24,0,0,1,3.07-9.23,23,23,0,0,1,16-10.7c.82-.12,1.65-.17,2.48-.26h2.44a19.58,19.58,0,0,1,2.43.19l1.21.14,1.2.25a28.46,28.46,0,0,1,16.23,9.64c.47.63,1,1.21,1.43,1.87l1.28,2,1,2.09c.35.7.57,1.45.86,2.16a26.39,26.39,0,0,1,1.54,9,.54.54,0,0,1-.55.52.52.52,0,0,1-.52-.45Z"/><path class="cls-76" d="M740.4,851.57a27,27,0,0,1-6.57,16.84,28.2,28.2,0,0,1-16,9.39,28.69,28.69,0,0,1-9.57.35A22.85,22.85,0,0,1,692.4,867.8a21.51,21.51,0,0,1-3.11-9.11l-.12-1.21v-1.21a16.94,16.94,0,0,1,1.53-7.24,17.53,17.53,0,0,1,6.52-7.5,17.23,17.23,0,0,1,4.61-2.12,19.26,19.26,0,0,1,2.5-.57,21.7,21.7,0,0,1,2.55-.18,14.22,14.22,0,0,1,9.72,3.46,13.52,13.52,0,0,1,4.71,9.07,11.86,11.86,0,0,1-.66,5.27,11.25,11.25,0,0,1-3.19,4.37,11.08,11.08,0,0,1-4.89,2.29,10,10,0,0,1-5.4-.4,7.8,7.8,0,0,1-5-8.36.82.82,0,0,1,1.62.09,6,6,0,0,0,4.43,5.38,7.39,7.39,0,0,0,3.58-.12,7.85,7.85,0,0,0,3.11-1.75c3.65-3.19,2.75-9.58-1-12.82a10.07,10.07,0,0,0-7-2.52,14.75,14.75,0,0,0-2,.11,16.25,16.25,0,0,0-1.93.43,13,13,0,0,0-3.61,1.61,13.67,13.67,0,0,0-5.16,5.81,14.5,14.5,0,0,0-1.18,7.74A19.08,19.08,0,0,0,695.5,866a19.3,19.3,0,0,0,5.58,6,19.59,19.59,0,0,0,7.67,3.17,25.41,25.41,0,0,0,8.52-.09,26.67,26.67,0,0,0,14.92-8,26.22,26.22,0,0,0,6.93-15.51h0a.64.64,0,0,1,1.28.08Z"/><path class="cls-77" d="M787.07,863.22A27,27,0,0,0,779.72,848,26.6,26.6,0,0,0,765,840.2a26.26,26.26,0,0,0-8.34-.12,19.67,19.67,0,0,0-7.5,3,18.84,18.84,0,0,0-5.57,5.78,18.27,18.27,0,0,0-2.52,7.55,14.38,14.38,0,0,0,1.07,7.68,13.58,13.58,0,0,0,5.06,5.85,13.36,13.36,0,0,0,3.58,1.69,16.12,16.12,0,0,0,1.94.47,16.86,16.86,0,0,0,2,.17,10.39,10.39,0,0,0,7.19-2.44c4-3.22,5.14-10,1.17-13.5a8.14,8.14,0,0,0-3.38-1.83,7.42,7.42,0,0,0-3.83,0,6,6,0,0,0-4.24,5.76.87.87,0,0,1-1.73.11v0a7.81,7.81,0,0,1,5.23-8,10.4,10.4,0,0,1,9.78,1.93,10.7,10.7,0,0,1,3,4.14,11.06,11.06,0,0,1,.68,5,13.36,13.36,0,0,1-4.44,8.86,14,14,0,0,1-9.49,3.55,21.55,21.55,0,0,1-2.53-.13,21.2,21.2,0,0,1-2.49-.53,17.17,17.17,0,0,1-4.64-2,17.48,17.48,0,0,1-6.61-7.46,16.52,16.52,0,0,1-1.44-4.8,16.06,16.06,0,0,1-.18-2.47v-1.23l.11-1.22a22.24,22.24,0,0,1,3.07-9.23,22.91,22.91,0,0,1,16-10.7c.83-.12,1.66-.17,2.49-.26h2.44a19.88,19.88,0,0,1,2.43.19l1.21.14,1.19.25A28.39,28.39,0,0,1,782,846.05c.48.63,1,1.21,1.44,1.87l1.27,2,1,2.09c.35.7.58,1.45.87,2.16a26.62,26.62,0,0,1,1.53,9,.52.52,0,0,1-.54.52.54.54,0,0,1-.53-.45Z"/><path class="cls-78" d="M835.38,851.57a27,27,0,0,1-6.57,16.84,28.2,28.2,0,0,1-16,9.39,28.68,28.68,0,0,1-9.57.35,22.85,22.85,0,0,1-15.84-10.35,21.51,21.51,0,0,1-3.11-9.11l-.12-1.21v-1.21a15.82,15.82,0,0,1,.14-2.46,17.11,17.11,0,0,1,1.38-4.78,17.6,17.6,0,0,1,6.52-7.5,17.29,17.29,0,0,1,4.62-2.12,18.75,18.75,0,0,1,2.49-.57,21.86,21.86,0,0,1,2.55-.18,14.22,14.22,0,0,1,9.72,3.46,13.52,13.52,0,0,1,4.71,9.07,11.72,11.72,0,0,1-.66,5.27,11.15,11.15,0,0,1-3.19,4.37,11,11,0,0,1-4.89,2.29,10,10,0,0,1-5.39-.4,7.78,7.78,0,0,1-5-8.36.81.81,0,0,1,.94-.64.8.8,0,0,1,.67.73,6,6,0,0,0,4.43,5.38,7.39,7.39,0,0,0,3.58-.12,8,8,0,0,0,3.12-1.75c3.64-3.19,2.74-9.58-1-12.82a10.07,10.07,0,0,0-7-2.52,14.51,14.51,0,0,0-2,.11,16,16,0,0,0-1.94.43,12.81,12.81,0,0,0-3.6,1.61,13.54,13.54,0,0,0-5.16,5.81,14.41,14.41,0,0,0-1.19,7.74A18.74,18.74,0,0,0,796.07,872a19.55,19.55,0,0,0,7.66,3.17,25.41,25.41,0,0,0,8.52-.09,26.64,26.64,0,0,0,14.92-8,26.22,26.22,0,0,0,6.93-15.51h0a.63.63,0,0,1,.7-.56A.62.62,0,0,1,835.38,851.57Z"/><path class="cls-79" d="M882.05,863.22A27,27,0,0,0,874.71,848,26.66,26.66,0,0,0,860,840.2a26.2,26.2,0,0,0-8.33-.12,19.65,19.65,0,0,0-7.51,3,18.84,18.84,0,0,0-5.57,5.78,18.32,18.32,0,0,0-2.52,7.55,14.38,14.38,0,0,0,1.07,7.68,13.64,13.64,0,0,0,5.06,5.85,13.5,13.5,0,0,0,3.58,1.69,16.12,16.12,0,0,0,1.94.47,16.86,16.86,0,0,0,2,.17,10.37,10.37,0,0,0,7.19-2.44c4-3.22,5.15-10,1.17-13.5a8.14,8.14,0,0,0-3.38-1.83,7.38,7.38,0,0,0-3.82,0,6,6,0,0,0-4.25,5.76.87.87,0,0,1-1.73.11v0a7.82,7.82,0,0,1,5.23-8,10.4,10.4,0,0,1,9.78,1.93,10.6,10.6,0,0,1,3,4.14,11.06,11.06,0,0,1,.68,5,13.32,13.32,0,0,1-4.44,8.86,14,14,0,0,1-9.48,3.55,21.61,21.61,0,0,1-2.54-.13,20.62,20.62,0,0,1-2.48-.53,16.9,16.9,0,0,1-4.64-2,17.43,17.43,0,0,1-6.62-7.46,16.84,16.84,0,0,1-1.44-4.8,16.15,16.15,0,0,1-.18-2.47v-1.23l.11-1.22a22.24,22.24,0,0,1,3.07-9.23,22.91,22.91,0,0,1,16-10.7c.82-.12,1.65-.17,2.48-.26h2.44a19.88,19.88,0,0,1,2.43.19l1.21.14,1.19.25A28.39,28.39,0,0,1,877,846.05c.48.63,1,1.21,1.44,1.87l1.27,2,1.06,2.09c.34.7.57,1.45.86,2.16a26.62,26.62,0,0,1,1.53,9,.52.52,0,0,1-.54.52.54.54,0,0,1-.53-.45Z"/><path class="cls-80" d="M1088,860.16l-204,2.06a3.44,3.44,0,1,1-.07-6.88H884l204,2.06a1.38,1.38,0,1,1,0,2.76Z"/><path class="cls-81" d="M389.54,857.4l204-2.06a3.44,3.44,0,1,1,.07,6.88h-.07l-204-2.06a1.38,1.38,0,1,1,0-2.76Z"/><path class="cls-82" d="M662.85,859.7a4.54,4.54,0,1,1-4.54-4.44A4.49,4.49,0,0,1,662.85,859.7Z"/><ellipse class="cls-83" cx="706.44" cy="855.12" rx="4.54" ry="4.44"/><path class="cls-84" d="M758.76,859.82a4.54,4.54,0,1,1-4.53-4.44A4.49,4.49,0,0,1,758.76,859.82Z"/><ellipse class="cls-85" cx="801.42" cy="855" rx="4.54" ry="4.44"/><path class="cls-86" d="M853.86,859.82a4.54,4.54,0,1,1-4.54-4.44A4.49,4.49,0,0,1,853.86,859.82Z"/><ellipse class="cls-87" cx="610.41" cy="854.89" rx="4.54" ry="4.44"/><path class="cls-88" d="M431.64,795.36a27.78,27.78,0,0,1,7.06,2.39,16.61,16.61,0,0,1,4.76,3.56,13.14,13.14,0,0,1,2.7,4.52A16,16,0,0,1,447,811a14.94,14.94,0,0,1-.83,4.85,17,17,0,0,1-2.37,4.54,19.1,19.1,0,0,1-3.77,3.86,19.71,19.71,0,0,1-5,2.81q-5.53,2-17,2H386.13v-1.81h2.54q4.2,0,6.09-2.64,1.15-1.71,1.15-7.27V774.66q0-6.1-1.45-7.76a7.44,7.44,0,0,0-5.79-2.15h-2.54v-1.81h29.24a58.3,58.3,0,0,1,13.12,1.18,25,25,0,0,1,6.61,2.48,19.05,19.05,0,0,1,4.82,3.76,15,15,0,0,1,2.94,4.76,15.19,15.19,0,0,1,1,5.5,14,14,0,0,1-3.09,8.9A18.19,18.19,0,0,1,431.64,795.36Zm-26.15-2.64a54.06,54.06,0,0,0,9.43.68q7.33,0,10.93-1.51a12.52,12.52,0,0,0,3.27-2,12.25,12.25,0,0,0,2.37-2.73,12.53,12.53,0,0,0,1.44-3.28,13,13,0,0,0,.5-3.66,12.46,12.46,0,0,0-1.22-5.39,12.65,12.65,0,0,0-3.62-4.47,18.22,18.22,0,0,0-5.94-3,27,27,0,0,0-8.18-1.13,33.69,33.69,0,0,0-9,1.08Zm0,31.63a50.77,50.77,0,0,0,11.43,1.32,27.4,27.4,0,0,0,8-1.07,17.46,17.46,0,0,0,5.81-3,12.29,12.29,0,0,0,3.52-4.39,12.6,12.6,0,0,0,1.17-5.4,14,14,0,0,0-1.27-5.92,12.81,12.81,0,0,0-3.9-4.79,20,20,0,0,0-6.58-3.2,33.33,33.33,0,0,0-9.36-1.17c-2.09,0-3.87,0-5.31.1a27,27,0,0,0-3.52.34Z"/><path class="cls-89" d="M474.32,759.72v32.71q1.59-1.51,3.17-3.17a27.54,27.54,0,0,1,3.37-3,17.6,17.6,0,0,1,3.91-2.25,12.63,12.63,0,0,1,4.82-.88,10.52,10.52,0,0,1,5.94,1.54,10.66,10.66,0,0,1,3.59,4.1,19,19,0,0,1,1.77,5.84,46.26,46.26,0,0,1,.48,6.73V819c0,1.5,0,2.76.07,3.78a4.86,4.86,0,0,0,.7,2.49,3.73,3.73,0,0,0,2,1.44,15.12,15.12,0,0,0,4,.64v1.76H485.7v-1.76h1a12.31,12.31,0,0,0,3.5-.39,3.42,3.42,0,0,0,1.89-1.35,5.27,5.27,0,0,0,.8-2.56q.15-1.61.15-4.05V801.31c0-1.4,0-2.82-.07-4.27a12.5,12.5,0,0,0-.73-3.95,6.21,6.21,0,0,0-2.17-2.93,7.1,7.1,0,0,0-4.36-1.15,11.74,11.74,0,0,0-2.5.27,10.48,10.48,0,0,0-2.62,1,17.63,17.63,0,0,0-2.92,2,35,35,0,0,0-3.39,3.19V819c0,1.6,0,2.84.1,3.74a8.14,8.14,0,0,0,.37,2.07,2.37,2.37,0,0,0,.75,1.08,12.63,12.63,0,0,0,1.22.73,5.61,5.61,0,0,0,1.95.56,23.18,23.18,0,0,0,3,.17v1.76H459.05v-1.76a19.67,19.67,0,0,0,3.22-.22,4,4,0,0,0,2.17-1,4.89,4.89,0,0,0,1.22-2.51A22,22,0,0,0,466,819V778.57a64.18,64.18,0,0,0-.4-9.43,4.07,4.07,0,0,0-1.13-2.39,3.16,3.16,0,0,0-2.07-.63,11.52,11.52,0,0,0-3.39.78l-.7-1.71L472,759.72Z"/><path class="cls-90" d="M543,822.69q-7,5.37-8.83,6.15a13.47,13.47,0,0,1-5.74,1.22,11.08,11.08,0,0,1-4.34-.83,9.91,9.91,0,0,1-3.44-2.34,10.65,10.65,0,0,1-2.27-3.64,12.86,12.86,0,0,1-.83-4.71,11.28,11.28,0,0,1,.53-3.51,10.78,10.78,0,0,1,1.57-3,15,15,0,0,1,2.67-2.76,29.65,29.65,0,0,1,3.81-2.59q5.14-3,16.87-7.12v-1.76a23.18,23.18,0,0,0-.57-5.61,9.43,9.43,0,0,0-1.65-3.59,5.85,5.85,0,0,0-2.67-1.91,10.86,10.86,0,0,0-3.59-.56,8.55,8.55,0,0,0-2.87.46,7.23,7.23,0,0,0-2.17,1.23,5.1,5.1,0,0,0-1.37,1.75,4.65,4.65,0,0,0-.48,2l.1,2.83a4.78,4.78,0,0,1-1.17,3.46,4.05,4.05,0,0,1-3.07,1.23,4,4,0,0,1-3-1.27,4.92,4.92,0,0,1-1.17-3.47,8.15,8.15,0,0,1,1.12-4.05,11.81,11.81,0,0,1,3.25-3.61,16.71,16.71,0,0,1,5.23-2.59,26.87,26.87,0,0,1,16.1.54,9.69,9.69,0,0,1,5.34,5.22c.59,1.43.89,4.3.89,8.59v15.18c0,2.15,0,3.88.08,5.18s.11,2.19.17,2.68a3.15,3.15,0,0,0,.83,1.9,2,2,0,0,0,1.32.5,3,3,0,0,0,1-.15,4.12,4.12,0,0,0,1-.59,16.15,16.15,0,0,0,1.39-1.19l2.05-2v2.73Q553.43,830,548.39,830a5,5,0,0,1-3.89-1.65Q543,826.7,543,822.69Zm0-3.17v-17q-3.79,1.47-6.21,2.49a36.14,36.14,0,0,0-3.52,1.66,17.36,17.36,0,0,0-5.64,4.52,8.45,8.45,0,0,0-1.7,5.1,9.06,9.06,0,0,0,.58,3.25,8.33,8.33,0,0,0,1.55,2.58,7,7,0,0,0,2.27,1.71,6.18,6.18,0,0,0,2.69.61Q536.81,824.4,543,819.52Z"/><path class="cls-91" d="M580.94,783.1v10.06q5.79-10,11.78-10.06a7,7,0,0,1,2.5.44,6.93,6.93,0,0,1,2,1.2,5.28,5.28,0,0,1,1.34,1.73,4.6,4.6,0,0,1,.48,2,4.44,4.44,0,0,1-1.3,3.23,4.21,4.21,0,0,1-3.09,1.31,4.32,4.32,0,0,1-1.9-.53c-.7-.36-1.39-.74-2.07-1.15s-1.31-.79-1.87-1.15a2.81,2.81,0,0,0-1.3-.54,2.61,2.61,0,0,0-1.45.57,8.67,8.67,0,0,0-1.64,1.56,22.55,22.55,0,0,0-1.75,2.39c-.6.93-1.18,1.94-1.75,3v21.43a24.55,24.55,0,0,0,.25,3.61,6.22,6.22,0,0,0,1.08,2.74,5.19,5.19,0,0,0,2.42,1.73,12.24,12.24,0,0,0,4.24.61v1.76h-23.4v-1.76a18.47,18.47,0,0,0,3.59-.29,4,4,0,0,0,2.19-1.17,5,5,0,0,0,1.1-2.52,24.9,24.9,0,0,0,.3-4.32V801.75a63.85,63.85,0,0,0-.35-9.27q-.65-2.88-3.34-2.88a10,10,0,0,0-3.49.73l-.5-1.76,13.82-5.47Z"/><path class="cls-92" d="M632.61,822.69q-7,5.37-8.83,6.15a13.47,13.47,0,0,1-5.74,1.22,11,11,0,0,1-4.34-.83,10,10,0,0,1-3.45-2.34,11,11,0,0,1-2.27-3.64,13.08,13.08,0,0,1-.82-4.71,11.58,11.58,0,0,1,.52-3.51,10.81,10.81,0,0,1,1.58-3,14.67,14.67,0,0,1,2.67-2.76,29.65,29.65,0,0,1,3.81-2.59q5.14-3,16.87-7.12v-1.76a22.63,22.63,0,0,0-.58-5.61,9.43,9.43,0,0,0-1.64-3.59,5.9,5.9,0,0,0-2.67-1.91,10.91,10.91,0,0,0-3.59-.56,8.51,8.51,0,0,0-2.87.46,7.23,7.23,0,0,0-2.17,1.23,5.25,5.25,0,0,0-1.38,1.75,4.78,4.78,0,0,0-.47,2l.1,2.83a4.78,4.78,0,0,1-1.17,3.46,4.07,4.07,0,0,1-3.07,1.23,4,4,0,0,1-3-1.27,4.92,4.92,0,0,1-1.17-3.47,8.15,8.15,0,0,1,1.12-4.05,11.9,11.9,0,0,1,3.24-3.61,16.88,16.88,0,0,1,5.24-2.59,26.84,26.84,0,0,1,16.09.54,9.63,9.63,0,0,1,5.34,5.22c.6,1.43.9,4.3.9,8.59v15.18c0,2.15,0,3.88.08,5.18s.1,2.19.17,2.68a3.15,3.15,0,0,0,.83,1.9,2,2,0,0,0,1.32.5,3,3,0,0,0,1-.15,4.08,4.08,0,0,0,1-.59,14.72,14.72,0,0,0,1.4-1.19l2-2v2.73Q643,830,638,830a5,5,0,0,1-3.89-1.65Q632.61,826.7,632.61,822.69Zm0-3.17v-17Q628.82,804,626.4,805a36.14,36.14,0,0,0-3.52,1.66,17.36,17.36,0,0,0-5.64,4.52,8.45,8.45,0,0,0-1.7,5.1,9.06,9.06,0,0,0,.58,3.25,8.33,8.33,0,0,0,1.55,2.58,7,7,0,0,0,2.26,1.71,6.26,6.26,0,0,0,2.7.61Q626.42,824.4,632.61,819.52Z"/><path class="cls-93" d="M670.45,769.73v14.69h10.68v3.42H670.45v29a15.91,15.91,0,0,0,.35,3.63,6.41,6.41,0,0,0,1,2.27,3.1,3.1,0,0,0,1.42,1.15,5.08,5.08,0,0,0,1.82.32,5.81,5.81,0,0,0,3.2-1,6.39,6.39,0,0,0,2.39-3h1.95a18.41,18.41,0,0,1-2.17,4.2,14.36,14.36,0,0,1-2.77,3,11.19,11.19,0,0,1-3.19,1.81,10,10,0,0,1-3.4.61,8.94,8.94,0,0,1-2.32-.32,8.5,8.5,0,0,1-2.19-.93,8.34,8.34,0,0,1-1.87-1.49,6.41,6.41,0,0,1-1.35-2,18.46,18.46,0,0,1-1-7.17V787.84H655v-1.61a19.17,19.17,0,0,0,5.62-3.64,28.8,28.8,0,0,0,5.11-6.08c.37-.61.83-1.49,1.38-2.61s1.15-2.51,1.82-4.17Z"/><path class="cls-94" d="M805.72,792.59l24.95,24.25q6.14,6,10.48,8.21a23.4,23.4,0,0,0,8.68,2.44v1.8H817.64v-1.8a7,7,0,0,0,4.17-1,2.66,2.66,0,0,0,1.27-2.12,8.4,8.4,0,0,0-.05-1,2.52,2.52,0,0,0-.37-1,11.52,11.52,0,0,0-1-1.37c-.48-.55-1.19-1.27-2.12-2.14l-23.35-22.61v21.34c0,1.56,0,2.83.1,3.8a11.24,11.24,0,0,0,.37,2.4,3.63,3.63,0,0,0,.82,1.49,6.08,6.08,0,0,0,1.45,1,9.26,9.26,0,0,0,4.54,1.18h2.3v1.8H776.88v-1.8h2.39q4.25,0,6.09-2.39,1.2-1.51,1.2-7.52V774.82c0-1.5,0-2.74-.08-3.71a10,10,0,0,0-.37-2.42,4.18,4.18,0,0,0-.83-1.54,5,5,0,0,0-1.42-1.07,9.61,9.61,0,0,0-4.59-1.17h-2.39V763.1h28.84v1.81h-2.3a10.5,10.5,0,0,0-2,.19,9,9,0,0,0-1.94.61,6.7,6.7,0,0,0-1.68,1.08,4,4,0,0,0-1.09,1.58q-.6,1.56-.6,6.45v20.25q1.93-1.56,4.44-3.8c1.66-1.5,3.37-3.08,5.11-4.74s3.48-3.32,5.19-5,3.27-3.2,4.67-4.61,2.57-2.64,3.52-3.69,1.55-1.74,1.82-2.1a6.35,6.35,0,0,0,1.34-3.41,2.53,2.53,0,0,0-1-2,5.66,5.66,0,0,0-3.57-.85H816.1V763.1h24.84v1.81a18.23,18.23,0,0,0-4,.58c-.6.2-1.27.46-2,.78a20.82,20.82,0,0,0-2.42,1.32c-.88.56-1.85,1.23-2.9,2s-2.2,1.76-3.46,2.9Z"/><path class="cls-95" d="M886.82,783.26v15.23h-1.64a30.4,30.4,0,0,0-2.15-6,13.33,13.33,0,0,0-2.72-3.78,8.78,8.78,0,0,0-3.39-2,14,14,0,0,0-4.17-.59,9.37,9.37,0,0,0-3.17.51,8.86,8.86,0,0,0-2.44,1.32,6.11,6.11,0,0,0-1.6,1.86A4.38,4.38,0,0,0,865,792a7.73,7.73,0,0,0,.4,2.54,6.41,6.41,0,0,0,1.67,2.42,20.61,20.61,0,0,0,3.64,2.66c1.58.94,3.7,2,6.36,3.31a47.27,47.27,0,0,1,6.21,3.47,23.15,23.15,0,0,1,4.1,3.42,10.46,10.46,0,0,1,2.92,7.32,11.74,11.74,0,0,1-1.33,5.59,13.73,13.73,0,0,1-3.46,4.27A16.88,16.88,0,0,1,875,830.66a31.44,31.44,0,0,1-4.49-.34,38.92,38.92,0,0,1-5.09-1.12,14.7,14.7,0,0,0-1.5-.37,6.59,6.59,0,0,0-1.2-.12,2.06,2.06,0,0,0-1.8,1.27h-1.64V814h1.64a22,22,0,0,0,2.1,6,15.94,15.94,0,0,0,3.27,4.29,13.27,13.27,0,0,0,4.14,2.59,12.73,12.73,0,0,0,4.67.88,8.64,8.64,0,0,0,3.11-.54,8.08,8.08,0,0,0,2.48-1.44,6.55,6.55,0,0,0,1.62-2.12,6.14,6.14,0,0,0,.57-2.64,8.66,8.66,0,0,0-.5-3,7,7,0,0,0-1.84-2.61,21.09,21.09,0,0,0-3.7-2.66c-1.56-.93-3.57-2-6-3.2a47.7,47.7,0,0,1-6-3.27,16.71,16.71,0,0,1-3.56-3,8.25,8.25,0,0,1-1.75-3.22,14.91,14.91,0,0,1-.45-3.83,12.73,12.73,0,0,1,1-5.1A12.11,12.11,0,0,1,863,787a13.66,13.66,0,0,1,4.39-2.74,15.31,15.31,0,0,1,5.59-1,13.81,13.81,0,0,1,2.45.29c1,.2,2,.41,3,.64l2.76.63a8.94,8.94,0,0,0,1.7.3,2,2,0,0,0,1.25-.35,4.58,4.58,0,0,0,1-1.51Z"/><path class="cls-96" d="M915.59,759.88v32.71c1.06-1,2.12-2.07,3.16-3.18a29.28,29.28,0,0,1,3.37-3,17.63,17.63,0,0,1,3.92-2.24,12.39,12.39,0,0,1,4.81-.88,9.84,9.84,0,0,1,9.53,5.64,18.77,18.77,0,0,1,1.78,5.83,47.86,47.86,0,0,1,.47,6.74v17.72c0,1.5,0,2.75.07,3.78a5.06,5.06,0,0,0,.7,2.49,3.81,3.81,0,0,0,2,1.44,15,15,0,0,0,4,.64v1.75H927v-1.75h1a12.19,12.19,0,0,0,3.49-.39,3.49,3.49,0,0,0,1.9-1.35,5.42,5.42,0,0,0,.8-2.56q.15-1.61.15-4V801.47c0-1.4,0-2.82-.08-4.27a12.91,12.91,0,0,0-.72-4,6.3,6.3,0,0,0-2.17-2.92,7.13,7.13,0,0,0-4.37-1.15,11.72,11.72,0,0,0-2.49.27,10.68,10.68,0,0,0-2.62,1,18,18,0,0,0-2.92,2,32.78,32.78,0,0,0-3.39,3.19v23.63c0,1.59,0,2.84.1,3.73a7.35,7.35,0,0,0,.37,2.08,2.19,2.19,0,0,0,.75,1.07,9.31,9.31,0,0,0,1.22.73,5.74,5.74,0,0,0,2,.57,23.13,23.13,0,0,0,3,.17v1.75H900.32v-1.75a20.71,20.71,0,0,0,3.21-.22,3.93,3.93,0,0,0,2.17-1.05,4.93,4.93,0,0,0,1.23-2.52,21.93,21.93,0,0,0,.37-4.56V778.72a62.62,62.62,0,0,0-.4-9.42,4,4,0,0,0-1.12-2.39,3.2,3.2,0,0,0-2.07-.64,11.16,11.16,0,0,0-3.39.79l-.7-1.71,13.67-5.47Z"/><path class="cls-97" d="M974.14,783.26v35.93a32.76,32.76,0,0,0,.15,3.49,9.73,9.73,0,0,0,.45,2.17,3,3,0,0,0,.77,1.24,6,6,0,0,0,1.07.76,10.38,10.38,0,0,0,4.49.69v1.75h-22.2v-1.75a20.79,20.79,0,0,0,2.77-.15,5.63,5.63,0,0,0,1.75-.49,3,3,0,0,0,1-.85,8.8,8.8,0,0,0,.73-1.25,15.35,15.35,0,0,0,.69-5.61V802c0-2.83,0-5.06-.14-6.69a17.39,17.39,0,0,0-.53-3.66,2.26,2.26,0,0,0-1.1-1.54,4.57,4.57,0,0,0-1.82-.32,10.16,10.16,0,0,0-3.39.74l-.7-1.76,13.77-5.47ZM970,759.88a5,5,0,0,1,2,.39,4.92,4.92,0,0,1,2.67,2.61,4.86,4.86,0,0,1,0,3.86,5.44,5.44,0,0,1-1.07,1.58,4.91,4.91,0,0,1-1.6,1.08,5.2,5.2,0,0,1-4,0,5.22,5.22,0,0,1-1.62-1.08,5,5,0,0,1-1.09-1.58,4.86,4.86,0,0,1,0-3.86,4.87,4.87,0,0,1,1.07-1.56,5,5,0,0,1,1.62-1.05A5.2,5.2,0,0,1,970,759.88Z"/><path class="cls-98" d="M1005.15,769.89v14.69h10.67V788h-10.67v29a15.39,15.39,0,0,0,.35,3.64,6.49,6.49,0,0,0,.94,2.27,3.17,3.17,0,0,0,1.43,1.14,4.8,4.8,0,0,0,1.82.32,5.79,5.79,0,0,0,3.19-1,6.39,6.39,0,0,0,2.39-3h2a18.84,18.84,0,0,1-2.17,4.2,14.62,14.62,0,0,1-2.77,3,11.19,11.19,0,0,1-3.19,1.81,10.16,10.16,0,0,1-3.39.61,8.88,8.88,0,0,1-2.32-.32,8.77,8.77,0,0,1-2.2-.93,8.88,8.88,0,0,1-1.87-1.49,6.53,6.53,0,0,1-1.35-2,18.46,18.46,0,0,1-1.05-7.17V788h-7.23v-1.62a18.76,18.76,0,0,0,5.61-3.63,29.05,29.05,0,0,0,5.11-6.08q.55-.93,1.38-2.61c.55-1.12,1.15-2.51,1.82-4.17Z"/><path class="cls-99" d="M1041.14,783.26v35.93a32.76,32.76,0,0,0,.15,3.49,9.73,9.73,0,0,0,.45,2.17,3,3,0,0,0,.77,1.24,6.43,6.43,0,0,0,1.07.76,10.43,10.43,0,0,0,4.5.69v1.75h-22.21v-1.75a20.79,20.79,0,0,0,2.77-.15,5.55,5.55,0,0,0,1.75-.49,3,3,0,0,0,1-.85,7.94,7.94,0,0,0,.72-1.25,15.07,15.07,0,0,0,.7-5.61V802q0-4.25-.15-6.69a16.75,16.75,0,0,0-.53-3.66,2.28,2.28,0,0,0-1.09-1.54,4.6,4.6,0,0,0-1.82-.32,10.16,10.16,0,0,0-3.4.74l-.7-1.76,13.77-5.47ZM1037,759.88a5,5,0,0,1,2,.39,5.05,5.05,0,0,1,1.6,1.05,5.21,5.21,0,0,1,1.07,1.56,4.86,4.86,0,0,1,0,3.86,5.44,5.44,0,0,1-1.07,1.58,4.81,4.81,0,0,1-1.6,1.08,5.11,5.11,0,0,1-5.56-1.08,4.84,4.84,0,0,1-1.1-1.58,4.86,4.86,0,0,1,0-3.86,4.87,4.87,0,0,1,1.07-1.56,5,5,0,0,1,1.62-1.05A5.24,5.24,0,0,1,1037,759.88Z"/><path class="cls-100" d="M1098.59,815.58v13.71h-40.86v-1.75L1088.06,788h-15c-1.67,0-3,0-4,.14a10.07,10.07,0,0,0-2.37.47,3.5,3.5,0,0,0-1.42.87,7.87,7.87,0,0,0-1,1.44,14.55,14.55,0,0,0-1.54,6.06h-2v-12.4h38.62v1.8L1068.75,826h16.67a40,40,0,0,0,4.39-.19,10.39,10.39,0,0,0,2.8-.66,4.56,4.56,0,0,0,1.72-1.2,12,12,0,0,0,1.22-1.8q.79-1.51,1.35-6.59Z"/><path class="cls-101" d="M726.81,813.55c0-5,3.45-8.52,8.29-8.52s8.16,3.51,8.16,8.52-3.18,8.52-8.3,8.52C730.12,822.07,726.81,818.42,726.81,813.55Z"/><path class="cls-102" d="M462.53,901.31c3.65.12,6,.17,7,.17,1.36,0,2.89,0,4.58-.1s2.91-.09,3.33-.09a17.27,17.27,0,0,1,5,.62,6.63,6.63,0,0,1,3.3,2.25,6.19,6.19,0,0,1,1.3,4,8.09,8.09,0,0,1-.91,3.7,8.9,8.9,0,0,1-2.55,3.05,10.66,10.66,0,0,1-6.78,2.33,16.82,16.82,0,0,1-3-.29l-.37-1.3.2-.21a12.81,12.81,0,0,0,2.65.36,6,6,0,0,0,4.58-1.84,6.62,6.62,0,0,0,1.72-4.71,6.09,6.09,0,0,0-1.79-4.62,7.58,7.58,0,0,0-5.42-1.72,14.77,14.77,0,0,0-4.35.73q-.19,1.63-.2,7.91v9.84l0,4.15a26.82,26.82,0,0,0,.14,3.1,1.94,1.94,0,0,0,.31.94,1.65,1.65,0,0,0,.79.39,17.4,17.4,0,0,0,2.9.25l.17.12v1.07l-.17.17c-3.7-.12-5.78-.17-6.24-.17s-2.57,0-6.22.17l-.17-.17v-1.07l.17-.12a22.32,22.32,0,0,0,2.7-.22,1.92,1.92,0,0,0,.9-.33,1.69,1.69,0,0,0,.37-.86,20.63,20.63,0,0,0,.16-2.93l0-4.49V911.5l0-4.15c0-1.62-.06-2.66-.12-3.13a1.94,1.94,0,0,0-.31-.93,1.52,1.52,0,0,0-.79-.38,19,19,0,0,0-2.89-.24l-.17-.15v-1.06Z"/><path class="cls-103" d="M508.56,901.31c3.7.12,5.77.17,6.22.17s2.55-.05,6.24-.17l.17.15v1.06l-.17.15c-1,0-1.78.07-2.32.13a2.81,2.81,0,0,0-1.18.32,1.48,1.48,0,0,0-.49,1.09,18.56,18.56,0,0,0-.12,2.4l0,4.89v3c3.18.09,6.18.13,9,.13,3.89,0,6.84,0,8.87-.13v-3l0-4.15a31,31,0,0,0-.13-3.13,1.94,1.94,0,0,0-.31-.93,1.48,1.48,0,0,0-.78-.38,19.21,19.21,0,0,0-2.91-.24l-.15-.15v-1.06l.15-.15c3.71.12,5.79.17,6.24.17s2.57-.05,6.24-.17l.17.15v1.06l-.17.15c-1,0-1.8.07-2.34.13a2.81,2.81,0,0,0-1.18.32,1.45,1.45,0,0,0-.48,1.09,20.19,20.19,0,0,0-.13,2.4l0,4.89v9.84l0,4.15a25.36,25.36,0,0,0,.13,3.1,1.94,1.94,0,0,0,.31.94,1.65,1.65,0,0,0,.78.39,17.44,17.44,0,0,0,2.91.25l.17.12v1.07l-.17.17c-3.71-.12-5.79-.17-6.24-.17s-2.55,0-6.24.17l-.15-.17v-1.07l.15-.12a22.57,22.57,0,0,0,2.72-.22,1.82,1.82,0,0,0,.89-.33,1.78,1.78,0,0,0,.37-.86,17.14,17.14,0,0,0,.15-2.93l0-4.49v-4.85c-4.29-.08-7.29-.12-9-.12s-4.72,0-8.87.12v4.85l0,4.15a25.36,25.36,0,0,0,.13,3.1,1.94,1.94,0,0,0,.31.94,1.64,1.64,0,0,0,.8.39,17.23,17.23,0,0,0,2.89.25l.17.12v1.07l-.17.17c-3.7-.12-5.78-.17-6.24-.17s-2.52,0-6.22.17l-.17-.17v-1.07l.17-.12a22.32,22.32,0,0,0,2.7-.22,1.92,1.92,0,0,0,.9-.33,1.69,1.69,0,0,0,.37-.86,19.15,19.15,0,0,0,.16-2.93l0-4.49V911.5l0-4.15c0-1.62-.06-2.66-.12-3.13a1.94,1.94,0,0,0-.31-.93,1.52,1.52,0,0,0-.79-.38,19,19,0,0,0-2.89-.24l-.17-.15v-1.06Z"/><path class="cls-104" d="M564.5,916.71a18.34,18.34,0,0,1,.94-6,13.65,13.65,0,0,1,3.18-5.11A15.46,15.46,0,0,1,574,902a18.94,18.94,0,0,1,7.18-1.29q7.41,0,11.8,3.95t4.39,10.77a17.35,17.35,0,0,1-2.15,8.63,15,15,0,0,1-6.16,6,19,19,0,0,1-9,2.12,17.62,17.62,0,0,1-6.52-1.16,13.27,13.27,0,0,1-5.08-3.45,13.9,13.9,0,0,1-3-5.32A18.54,18.54,0,0,1,564.5,916.71ZM569,915.3a20.47,20.47,0,0,0,.86,5.59,14.43,14.43,0,0,0,2.57,5.12,11.06,11.06,0,0,0,3.93,3.18,12.79,12.79,0,0,0,11.08-.47,9.61,9.61,0,0,0,4-4.69,17.92,17.92,0,0,0,1.37-7.13,18.68,18.68,0,0,0-1.57-7.76,10.32,10.32,0,0,0-4.46-5,13.15,13.15,0,0,0-6.41-1.58,10.89,10.89,0,0,0-8.32,3.23Q569,909,569,915.3Z"/><path class="cls-105" d="M643.83,901.31l.2.19c-.13,1.28-.2,3.5-.2,6.68l-.17.17h-1l-.18-.19-.23-2a16.42,16.42,0,0,0-.28-1.92.86.86,0,0,0-.31-.51,3.91,3.91,0,0,0-1.42-.27c-.79-.07-1.68-.1-2.67-.1h-4.11c-.11,3.2-.17,5.05-.17,5.55v12.39l0,4.15c0,1.6.06,2.64.12,3.11a1.86,1.86,0,0,0,.31.94,1.6,1.6,0,0,0,.79.38,17.44,17.44,0,0,0,2.91.25l.15.12v1.07l-.15.17c-3.71-.12-5.78-.17-6.21-.17s-2.53,0-6.2.17l-.17-.17v-1.07l.17-.12a22.34,22.34,0,0,0,2.71-.22,1.87,1.87,0,0,0,.89-.33,1.68,1.68,0,0,0,.38-.86,17.14,17.14,0,0,0,.15-2.93l.05-4.49V909q0-.35-.18-5.55h-3.24c-1.33,0-2.48,0-3.45.08s-1.54.2-1.69.44a7.56,7.56,0,0,0-.42,2.28l-.22,2-.2.19h-1l-.17-.17c0-3.42-.09-5.64-.19-6.68l.19-.19q3.78.18,12.59.17Q640.2,901.48,643.83,901.31Z"/><path class="cls-106" d="M665.06,916.71a18.34,18.34,0,0,1,.94-6,13.65,13.65,0,0,1,3.18-5.11,15.41,15.41,0,0,1,5.43-3.64,18.86,18.86,0,0,1,7.17-1.29q7.41,0,11.8,3.95T698,915.43a17.35,17.35,0,0,1-2.15,8.63,14.94,14.94,0,0,1-6.16,6,19,19,0,0,1-9,2.12,17.66,17.66,0,0,1-6.52-1.16,13.27,13.27,0,0,1-5.08-3.45,13.9,13.9,0,0,1-3-5.32A18.54,18.54,0,0,1,665.06,916.71Zm4.52-1.41a20.47,20.47,0,0,0,.86,5.59A14.59,14.59,0,0,0,673,926a11.06,11.06,0,0,0,3.93,3.18,12.79,12.79,0,0,0,11.08-.47,9.61,9.61,0,0,0,4-4.69,17.92,17.92,0,0,0,1.37-7.13,18.68,18.68,0,0,0-1.57-7.76,10.32,10.32,0,0,0-4.46-5,13.15,13.15,0,0,0-6.41-1.58,10.89,10.89,0,0,0-8.32,3.23Q669.59,909,669.58,915.3Z"/><path class="cls-107" d="M750.72,919.77v.64l-.09.25-1.06.62a1.32,1.32,0,0,0-.46.36,7.26,7.26,0,0,0-.16,1.27c-.07.75-.1,1.68-.1,2.77a36.84,36.84,0,0,0,.24,4l-.13.21a34.56,34.56,0,0,1-12.24,2.23,20.69,20.69,0,0,1-8.72-1.78,14.34,14.34,0,0,1-6.17-5.3,14.94,14.94,0,0,1-2.28-8.33,14.5,14.5,0,0,1,5.14-11.7q5.14-4.34,13.42-4.34a28.28,28.28,0,0,1,10.93,2l.16.24a49.9,49.9,0,0,0-.92,6l-.17.15h-1l-.17-.17-.11-2.25a5.62,5.62,0,0,0-.15-1.3,1.38,1.38,0,0,0-.46-.5,11.41,11.41,0,0,0-2-1,16.71,16.71,0,0,0-3.25-1,18.46,18.46,0,0,0-3.5-.31,15,15,0,0,0-7,1.61,10.52,10.52,0,0,0-4.62,4.71,15.07,15.07,0,0,0-1.56,6.88,16.13,16.13,0,0,0,1.68,7.29,12.53,12.53,0,0,0,4.8,5.26,13.83,13.83,0,0,0,7.28,1.89,20.46,20.46,0,0,0,3.69-.35,11,11,0,0,0,3.1-1,12.91,12.91,0,0,0,.19-2.74v-2.36a5.8,5.8,0,0,0-.22-2.1,1.45,1.45,0,0,0-1.07-.58,25.52,25.52,0,0,0-3.71-.22l-.19-.19v-.93l.19-.19,1.33,0c2.27.07,4.13.11,5.56.11.83,0,2-.05,3.63-.13Z"/><path class="cls-108" d="M772.18,901.46l.18-.15c2.65.12,4.71.17,6.19.17q2.46,0,6.63-.15c1,0,1.78,0,2.24,0q5.51,0,7.46,2a6.33,6.33,0,0,1,2,4.63,7.14,7.14,0,0,1-1,3.51,8.34,8.34,0,0,1-2.83,2.94,14.29,14.29,0,0,1-5.15,1.85c.41.55,1.14,1.5,2.2,2.86l3.08,4c1,1.32,2.08,2.71,3.22,4.18a13,13,0,0,0,2.22,2.49,2.72,2.72,0,0,0,.86.35,7.51,7.51,0,0,0,1.14.06l.17.17v1l-.19.19a22.23,22.23,0,0,0-2.48-.12c-1,0-2.16,0-3.37.12q-1.5-1.79-4.72-6.18-3.74-5.1-7.65-9.47l.22-.66c.75.05,1.34.07,1.76.07a9,9,0,0,0,5.89-1.77,6,6,0,0,0,2.13-4.89,5,5,0,0,0-1.91-4.24,8.42,8.42,0,0,0-5.18-1.43,14.7,14.7,0,0,0-4.3.61q-.33.47-.33,8v9.84l0,4.15a30.55,30.55,0,0,0,.13,3.1,2,2,0,0,0,.32.94,1.65,1.65,0,0,0,.79.39,17.49,17.49,0,0,0,2.89.25l.18.12v1.07l-.18.17L781,931.4c-1,0-1.84,0-2.41,0s-2.53,0-6.22.17l-.18-.17v-1.07l.18-.12a22.08,22.08,0,0,0,2.69-.22,1.87,1.87,0,0,0,.9-.33,1.6,1.6,0,0,0,.38-.86,20.63,20.63,0,0,0,.16-2.93l0-4.49V911.5l0-4.15c0-1.62-.06-2.66-.12-3.13a1.94,1.94,0,0,0-.31-.93,1.52,1.52,0,0,0-.79-.38,19,19,0,0,0-2.89-.24l-.18-.15Z"/><path class="cls-109" d="M821.11,931.53l-.2-.17v-1.11l.2-.17a8.75,8.75,0,0,0,2-.16,1.71,1.71,0,0,0,.81-.55,16.13,16.13,0,0,0,1.45-2.71l2.28-4.85,5.91-13.1c1.12-2.57,2.23-5.13,3.33-7.7h1.41l9.28,21.35,1.24,2.85c.36.81.78,1.69,1.25,2.64a8,8,0,0,0,1,1.68,1.85,1.85,0,0,0,.67.39,6.85,6.85,0,0,0,1.8.16l.17.17v1.11l-.17.17c-1.54-.13-2.92-.19-4.15-.19l-7.22.19-.17-.17v-1.11l.17-.17a17.66,17.66,0,0,0,3-.2.71.71,0,0,0,.61-.73,3.59,3.59,0,0,0-.3-1.24l-2.68-6.48H830.28l-2.37,5.44a6.29,6.29,0,0,0-.63,2.15.82.82,0,0,0,.59.78,9.89,9.89,0,0,0,3,.28l.2.17v1.11l-.18.17c-1.87-.12-3.5-.17-4.91-.17C824.34,931.36,822.73,931.41,821.11,931.53ZM831,919.6h11l-5.46-12.82Z"/><path class="cls-110" d="M875.2,901.31c3.66.12,6,.17,7,.17,1.36,0,2.89,0,4.59-.1s2.9-.09,3.32-.09a17.27,17.27,0,0,1,5,.62,6.63,6.63,0,0,1,3.3,2.25,6.14,6.14,0,0,1,1.3,4,8,8,0,0,1-.91,3.7,9,9,0,0,1-2.54,3.05,11.1,11.1,0,0,1-3.31,1.79,11,11,0,0,1-3.48.54,16.82,16.82,0,0,1-3-.29l-.37-1.3.2-.21a12.89,12.89,0,0,0,2.65.36,6,6,0,0,0,4.58-1.84,6.63,6.63,0,0,0,1.73-4.71,6.1,6.1,0,0,0-1.8-4.62,7.58,7.58,0,0,0-5.42-1.72,14.77,14.77,0,0,0-4.35.73q-.19,1.63-.2,7.91v9.84l0,4.15a27.71,27.71,0,0,0,.13,3.1,1.94,1.94,0,0,0,.31.94,1.69,1.69,0,0,0,.8.39,17.23,17.23,0,0,0,2.89.25l.17.12v1.07l-.17.17c-3.7-.12-5.78-.17-6.24-.17s-2.56,0-6.22.17l-.17-.17v-1.07l.17-.12a22.32,22.32,0,0,0,2.7-.22,1.87,1.87,0,0,0,.9-.33,1.69,1.69,0,0,0,.37-.86,19.15,19.15,0,0,0,.16-2.93l0-4.49V911.5l0-4.15a29.09,29.09,0,0,0-.12-3.13,2,2,0,0,0-.3-.93,1.56,1.56,0,0,0-.8-.38,19,19,0,0,0-2.89-.24l-.17-.15v-1.06Z"/><path class="cls-111" d="M921.23,901.31c3.7.12,5.77.17,6.22.17s2.55-.05,6.24-.17l.17.15v1.06l-.17.15c-1,0-1.78.07-2.32.13a2.81,2.81,0,0,0-1.18.32,1.48,1.48,0,0,0-.49,1.09,18.56,18.56,0,0,0-.12,2.4l-.05,4.89v3c3.18.09,6.18.13,9,.13q5.82,0,8.86-.13v-3l0-4.15a28.12,28.12,0,0,0-.13-3.13,2.07,2.07,0,0,0-.3-.93,1.56,1.56,0,0,0-.79-.38,19.21,19.21,0,0,0-2.91-.24l-.15-.15v-1.06l.15-.15c3.71.12,5.79.17,6.24.17s2.57-.05,6.24-.17l.17.15v1.06l-.17.15c-1,0-1.8.07-2.34.13a2.81,2.81,0,0,0-1.18.32,1.45,1.45,0,0,0-.48,1.09,22.59,22.59,0,0,0-.13,2.4l-.05,4.89v9.84l.05,4.15a27.71,27.71,0,0,0,.13,3.1,2.06,2.06,0,0,0,.31.94,1.65,1.65,0,0,0,.78.39,17.44,17.44,0,0,0,2.91.25l.17.12v1.07l-.17.17c-3.71-.12-5.79-.17-6.24-.17s-2.54,0-6.24.17l-.15-.17v-1.07l.15-.12A22.57,22.57,0,0,0,946,930a1.82,1.82,0,0,0,.89-.33,1.78,1.78,0,0,0,.37-.86,17.14,17.14,0,0,0,.15-2.93l0-4.49v-4.85c-4.29-.08-7.29-.12-9-.12s-4.72,0-8.87.12v4.85l0,4.15a25.36,25.36,0,0,0,.13,3.1,1.94,1.94,0,0,0,.31.94,1.65,1.65,0,0,0,.79.39,17.53,17.53,0,0,0,2.9.25l.17.12v1.07l-.17.17c-3.7-.12-5.78-.17-6.24-.17s-2.52,0-6.22.17l-.17-.17v-1.07l.17-.12a22.32,22.32,0,0,0,2.7-.22,1.87,1.87,0,0,0,.9-.33,1.69,1.69,0,0,0,.37-.86,19.15,19.15,0,0,0,.16-2.93l0-4.49V911.5l0-4.15a29.09,29.09,0,0,0-.12-3.13,2.07,2.07,0,0,0-.3-.93,1.6,1.6,0,0,0-.8-.38,19,19,0,0,0-2.89-.24l-.17-.15v-1.06Z"/><path class="cls-112" d="M976.46,903.31l-.2-.19v-.9l.2-.19,6.15-1a7.7,7.7,0,0,1,1.27,1.13,21.09,21.09,0,0,1,1.8,2.54q1.19,1.86,3.06,5.19c1.24,2.22,2.44,4.44,3.58,6.67l2.22-3.45L997,909l4.61-7.72a15.63,15.63,0,0,0,1.65.09c.34,0,.84,0,1.52-.09l.17.17v.41c-.72.77-1.84,2.19-3.36,4.24s-2.66,3.65-3.4,4.8-1.67,2.61-2.75,4.36a23.73,23.73,0,0,0-1.79,3.16,4.63,4.63,0,0,0-.15,1.26v3.12l0,3.19a18.74,18.74,0,0,0,.15,2.58,1.9,1.9,0,0,0,.32,1,1.66,1.66,0,0,0,.78.37,18.94,18.94,0,0,0,2.88.24l.18.12v1.07l-.18.17-3.82-.13c-1,0-1.84,0-2.42,0s-2.53,0-6.21.17l-.18-.17v-1.07l.18-.12A21.54,21.54,0,0,0,988,930a1.91,1.91,0,0,0,.89-.33,1.42,1.42,0,0,0,.35-.78,14.53,14.53,0,0,0,.16-2.4l0-3.63v-4a57.44,57.44,0,0,0-3.2-5.51l-1.91-3c-.61-1-1.37-2.09-2.29-3.37a18.72,18.72,0,0,0-2.14-2.61,3.3,3.3,0,0,0-1.18-.81A11.33,11.33,0,0,0,976.46,903.31Z"/></svg>