<svg id="Layer_1" data-name="Layer 1" xmlns="http://www.w3.org/2000/svg" viewBox="0 0 110 107"><defs><style>.cls-1{fill:#2df31a;}</style></defs><rect class="cls-1" width="110" height="107"/><path d="M45.57,59.15c-4.25.27-8.1,1.89-10.29,7.66a1.62,1.62,0,0,1-1.55,1.06c-1.17,0-4.81-2.93-5.85-3.64,0,8.72,4,16.39,13.56,16.39C49.48,80.62,55,76,55,67.89c0-.33-.07-.65-.1-1l-9.33-7.77ZM76.39,26.38a6.47,6.47,0,0,0-4.26,1.74c-21.66,19.35-23.91,19.8-23.91,25.5a9.69,9.69,0,0,0,.93,4.1l6.76,5.63a9.75,9.75,0,0,0,2.37.32c6.58,0,10.39-4.82,22.37-27.17a10.91,10.91,0,0,0,1.47-4.87A5.52,5.52,0,0,0,76.39,26.38Z"/></svg>