<svg id="Layer_1" data-name="Layer 1" xmlns="http://www.w3.org/2000/svg" viewBox="0 0 110 107"><defs><style>.cls-1{fill:#2df31a;}</style></defs><rect class="cls-1" width="110" height="107"/><path d="M50.5,84.52l-6.67-2.24a1.57,1.57,0,0,1-.89-1.89L57.87,20.72a1.29,1.29,0,0,1,1.63-1l6.67,2.24a1.57,1.57,0,0,1,.89,1.89L52.13,83.48A1.29,1.29,0,0,1,50.5,84.52ZM38,70.28l4.75-5.88a1.71,1.71,0,0,0-.08-2.19L32.8,52.1,42.71,42a1.7,1.7,0,0,0,.08-2.19L38,33.91a1.2,1.2,0,0,0-1.86-.06L20.42,51a1.68,1.68,0,0,0,0,2.22L36.18,70.35A1.18,1.18,0,0,0,38,70.28Zm35.78.08L89.58,53.22a1.68,1.68,0,0,0,0-2.22L73.82,33.84A1.2,1.2,0,0,0,72,33.9l-4.75,5.89A1.69,1.69,0,0,0,67.29,42L77.2,52.1,67.29,62.21a1.69,1.69,0,0,0-.08,2.19L72,70.28a1.19,1.19,0,0,0,1.86.08Z" transform="translate(0 0)"/></svg>