<svg id="Layer_1" data-name="Layer 1" xmlns="http://www.w3.org/2000/svg" viewBox="0 0 110 107"><defs><style>.cls-1{fill:#2df31a;}.cls-2,.cls-3{fill:none;stroke:#020202;stroke-miterlimit:10;}.cls-2{stroke-width:4px;}.cls-3{stroke-width:3px;}</style></defs><rect class="cls-1" width="110" height="107" rx="0.46"/><path class="cls-2" d="M22.48,72.79l30.89-14.2a.46.46,0,0,0,.27-.42l-.42-38.28a.46.46,0,0,0-.65-.41L22.41,32.79a.46.46,0,0,0-.27.42l-.31,39.16A.46.46,0,0,0,22.48,72.79Z"/><path class="cls-3" d="M32.42,57.89l13.45-6.82a.2.2,0,0,0,.12-.18l-.2-17.44a.2.2,0,0,0-.29-.18L32,39.93a.2.2,0,0,0-.12.18l.21,17.59A.21.21,0,0,0,32.42,57.89Z"/><path class="cls-2" d="M54,19.71l20.88,13.2a3.05,3.05,0,0,1,1.43,1.78L89.87,78.81c.32,1.06-1.14-.73-2.1-1.29L54,57.54,53.64,21C53.17,19.63,52.83,19,54,19.71Z"/><path class="cls-2" d="M22.71,73.56l36,23.76a1.66,1.66,0,0,0,1.78,0l28.6-17.11c.65-.4,1.13-1.06.47-1.45L54,57.54,23.32,72.41C22.31,72.91,21.75,72.94,22.71,73.56Z"/><ellipse class="cls-3" cx="67.12" cy="45.4" rx="4.84" ry="4.46" transform="translate(17.26 109.28) rotate(-86.1)"/></svg>