<svg id="Layer_1" data-name="Layer 1" xmlns="http://www.w3.org/2000/svg" viewBox="0 0 110 107"><defs><style>.cls-1{fill:#2df31a;}.cls-2,.cls-3,.cls-4{fill:none;stroke-miterlimit:10;}.cls-2{stroke:#020202;stroke-width:5px;}.cls-3{stroke:#070707;}.cls-3,.cls-4{stroke-width:2px;}.cls-4{stroke:#050505;}</style></defs><rect class="cls-1" width="110" height="107"/><rect x="55.24" y="23.89" width="23.36" height="7.92"/><path d="M55,36a75.21,75.21,0,0,1-1.2,10c-.12.65-.49,2.6-1,4.58A53.21,53.21,0,0,1,47.13,64c1,.71,2,1.49,2.92,2.34C57.8,73.13,61.37,81.79,63.1,88.21l2.12.05L65,61.84a7.29,7.29,0,0,1-3.2-3.42,5.7,5.7,0,0,1,3.92-8.32A6.27,6.27,0,0,1,72,52.48a6.11,6.11,0,0,1,1.17,4.77,6.53,6.53,0,0,1-4,4.55q0,13.23-.05,26.46l2,.09a36.83,36.83,0,0,1,1.12-4.46c3.23-10,10.22-16.44,15-20a44,44,0,0,1-3.42-5.71A47.26,47.26,0,0,1,79,36.37"/><rect class="cls-2" x="24.3" y="53.17" width="10.02" height="10.02"/><path class="cls-3" d="M29,64.81a40,40,0,0,0,2.61,5.31,39.28,39.28,0,0,0,7.29,9.09C45.6,85.09,54.33,85.83,57.48,86"/><path class="cls-3" d="M35.34,51.76l7.24-7.11"/><circle class="cls-4" cx="45.27" cy="42.07" r="3.33"/></svg>