<svg id="Layer_1" data-name="Layer 1" xmlns="http://www.w3.org/2000/svg" viewBox="0 0 110 107"><defs><style>.cls-1{fill:#2df31a;}.cls-2{fill:#fcfafa;}</style></defs><rect class="cls-1" width="110" height="107"/><rect class="cls-2" x="35.34" y="37.05" width="40.3" height="25.76"/><path d="M74.38,32.83H35.62a3.88,3.88,0,0,0-3.87,3.88V62.54a3.88,3.88,0,0,0,3.87,3.88h15.5l-1.29,3.87H44a1.94,1.94,0,0,0,0,3.88H66a1.94,1.94,0,0,0,0-3.88H60.17l-1.29-3.87h15.5a3.88,3.88,0,0,0,3.87-3.88V36.71A3.88,3.88,0,0,0,74.38,32.83ZM73.09,61.25H36.91V38H73.09Z" transform="translate(0 0)"/></svg>