<svg id="Layer_1" data-name="Layer 1" xmlns="http://www.w3.org/2000/svg" viewBox="0 0 110 107"><defs><style>.cls-1{fill:#2df31a;}.cls-2{fill:#f7f5f5;}</style></defs><rect class="cls-1" width="110" height="107"/><rect class="cls-2" x="32.03" y="39.67" width="46.12" height="32.12"/><path d="M76.71,76.05H33.29a5,5,0,0,1-5-5V41a5,5,0,0,1,5-5H76.71a5,5,0,0,1,5,5V71A5,5,0,0,1,76.71,76.05ZM40,41.82a5.85,5.85,0,1,0,5.84,5.84A5.84,5.84,0,0,0,40,41.82ZM35,69.37H75V57.68l-9.13-9.13a1.26,1.26,0,0,0-1.78,0L50,62.69,44.2,56.9a1.26,1.26,0,0,0-1.78,0L35,64.36Z" transform="translate(0 0)"/></svg>